ISO-10303-21;
HEADER;
/* Generated by software containing ST-Developer
 * from STEP Tools, Inc. (www.steptools.com) 
 */

FILE_DESCRIPTION(
/* description */ (''),
/* implementation_level */ '2;1');

FILE_NAME(
/* name */ 'L joint .stp',
/* time_stamp */ '2025-04-10T21:32:59+02:00',
/* author */ ('Abdullah'),
/* organization */ (''),
/* preprocessor_version */ 'ST-DEVELOPER v20',
/* originating_system */ 'Autodesk Inventor 2025',
/* authorisation */ '');

FILE_SCHEMA (('AUTOMOTIVE_DESIGN { 1 0 10303 214 3 1 1 }'));
ENDSEC;

DATA;
#10=MECHANICAL_DESIGN_GEOMETRIC_PRESENTATION_REPRESENTATION('',(#13),#546);
#11=SHAPE_REPRESENTATION_RELATIONSHIP('SRR','None',#553,#12);
#12=ADVANCED_BREP_SHAPE_REPRESENTATION('',(#14),#545);
#13=STYLED_ITEM('',(#562),#14);
#14=MANIFOLD_SOLID_BREP('Solid1',#309);
#15=FACE_BOUND('',#50,.T.);
#16=FACE_BOUND('',#56,.T.);
#17=FACE_BOUND('',#59,.T.);
#18=FACE_BOUND('',#61,.T.);
#19=PLANE('',#341);
#20=PLANE('',#342);
#21=PLANE('',#350);
#22=PLANE('',#353);
#23=PLANE('',#358);
#24=PLANE('',#361);
#25=PLANE('',#362);
#26=PLANE('',#363);
#27=FACE_OUTER_BOUND('',#43,.T.);
#28=FACE_OUTER_BOUND('',#44,.T.);
#29=FACE_OUTER_BOUND('',#45,.T.);
#30=FACE_OUTER_BOUND('',#46,.T.);
#31=FACE_OUTER_BOUND('',#47,.T.);
#32=FACE_OUTER_BOUND('',#48,.T.);
#33=FACE_OUTER_BOUND('',#49,.T.);
#34=FACE_OUTER_BOUND('',#51,.T.);
#35=FACE_OUTER_BOUND('',#52,.T.);
#36=FACE_OUTER_BOUND('',#53,.T.);
#37=FACE_OUTER_BOUND('',#54,.T.);
#38=FACE_OUTER_BOUND('',#55,.T.);
#39=FACE_OUTER_BOUND('',#57,.T.);
#40=FACE_OUTER_BOUND('',#58,.T.);
#41=FACE_OUTER_BOUND('',#60,.T.);
#42=FACE_OUTER_BOUND('',#62,.T.);
#43=EDGE_LOOP('',(#201,#202,#203,#204));
#44=EDGE_LOOP('',(#205,#206,#207,#208));
#45=EDGE_LOOP('',(#209,#210,#211,#212));
#46=EDGE_LOOP('',(#213,#214,#215,#216));
#47=EDGE_LOOP('',(#217,#218,#219,#220,#221,#222,#223,#224,#225,#226,#227,
#228));
#48=EDGE_LOOP('',(#229,#230,#231,#232));
#49=EDGE_LOOP('',(#233,#234,#235,#236));
#50=EDGE_LOOP('',(#237));
#51=EDGE_LOOP('',(#238,#239,#240,#241));
#52=EDGE_LOOP('',(#242,#243,#244,#245));
#53=EDGE_LOOP('',(#246,#247,#248,#249));
#54=EDGE_LOOP('',(#250,#251,#252,#253));
#55=EDGE_LOOP('',(#254,#255,#256,#257));
#56=EDGE_LOOP('',(#258));
#57=EDGE_LOOP('',(#259,#260,#261,#262));
#58=EDGE_LOOP('',(#263,#264,#265,#266));
#59=EDGE_LOOP('',(#267));
#60=EDGE_LOOP('',(#268,#269,#270,#271));
#61=EDGE_LOOP('',(#272));
#62=EDGE_LOOP('',(#273,#274,#275,#276,#277,#278,#279,#280,#281,#282,#283,
#284));
#63=LINE('',#461,#89);
#64=LINE('',#467,#90);
#65=LINE('',#474,#91);
#66=LINE('',#477,#92);
#67=LINE('',#480,#93);
#68=LINE('',#482,#94);
#69=LINE('',#483,#95);
#70=LINE('',#486,#96);
#71=LINE('',#490,#97);
#72=LINE('',#494,#98);
#73=LINE('',#498,#99);
#74=LINE('',#502,#100);
#75=LINE('',#507,#101);
#76=LINE('',#510,#102);
#77=LINE('',#511,#103);
#78=LINE('',#516,#104);
#79=LINE('',#517,#105);
#80=LINE('',#520,#106);
#81=LINE('',#521,#107);
#82=LINE('',#525,#108);
#83=LINE('',#530,#109);
#84=LINE('',#531,#110);
#85=LINE('',#533,#111);
#86=LINE('',#536,#112);
#87=LINE('',#539,#113);
#88=LINE('',#541,#114);
#89=VECTOR('',#370,1.5);
#90=VECTOR('',#377,1.5);
#91=VECTOR('',#384,10.);
#92=VECTOR('',#387,10.);
#93=VECTOR('',#390,10.);
#94=VECTOR('',#391,10.);
#95=VECTOR('',#392,10.);
#96=VECTOR('',#395,10.);
#97=VECTOR('',#398,10.);
#98=VECTOR('',#401,10.);
#99=VECTOR('',#404,10.);
#100=VECTOR('',#407,10.);
#101=VECTOR('',#414,10.);
#102=VECTOR('',#417,10.);
#103=VECTOR('',#418,10.);
#104=VECTOR('',#423,10.);
#105=VECTOR('',#424,10.);
#106=VECTOR('',#427,10.);
#107=VECTOR('',#428,10.);
#108=VECTOR('',#433,10.);
#109=VECTOR('',#438,10.);
#110=VECTOR('',#439,10.);
#111=VECTOR('',#442,10.);
#112=VECTOR('',#445,10.);
#113=VECTOR('',#450,10.);
#114=VECTOR('',#453,10.);
#115=CIRCLE('',#333,1.5);
#116=CIRCLE('',#334,1.5);
#117=CIRCLE('',#336,1.5);
#118=CIRCLE('',#337,1.5);
#119=CIRCLE('',#339,2.);
#120=CIRCLE('',#340,2.);
#121=CIRCLE('',#343,2.);
#122=CIRCLE('',#344,2.);
#123=CIRCLE('',#345,2.);
#124=CIRCLE('',#346,2.);
#125=CIRCLE('',#347,2.);
#126=CIRCLE('',#349,2.);
#127=CIRCLE('',#352,2.);
#128=CIRCLE('',#355,2.);
#129=CIRCLE('',#357,2.);
#130=CIRCLE('',#360,2.);
#131=VERTEX_POINT('',#458);
#132=VERTEX_POINT('',#460);
#133=VERTEX_POINT('',#464);
#134=VERTEX_POINT('',#466);
#135=VERTEX_POINT('',#470);
#136=VERTEX_POINT('',#471);
#137=VERTEX_POINT('',#473);
#138=VERTEX_POINT('',#475);
#139=VERTEX_POINT('',#479);
#140=VERTEX_POINT('',#481);
#141=VERTEX_POINT('',#485);
#142=VERTEX_POINT('',#487);
#143=VERTEX_POINT('',#489);
#144=VERTEX_POINT('',#491);
#145=VERTEX_POINT('',#493);
#146=VERTEX_POINT('',#495);
#147=VERTEX_POINT('',#497);
#148=VERTEX_POINT('',#499);
#149=VERTEX_POINT('',#501);
#150=VERTEX_POINT('',#505);
#151=VERTEX_POINT('',#509);
#152=VERTEX_POINT('',#513);
#153=VERTEX_POINT('',#514);
#154=VERTEX_POINT('',#519);
#155=VERTEX_POINT('',#523);
#156=VERTEX_POINT('',#527);
#157=VERTEX_POINT('',#528);
#158=VERTEX_POINT('',#535);
#159=EDGE_CURVE('',#131,#131,#115,.T.);
#160=EDGE_CURVE('',#131,#132,#63,.T.);
#161=EDGE_CURVE('',#132,#132,#116,.T.);
#162=EDGE_CURVE('',#133,#133,#117,.T.);
#163=EDGE_CURVE('',#133,#134,#64,.T.);
#164=EDGE_CURVE('',#134,#134,#118,.T.);
#165=EDGE_CURVE('',#135,#136,#119,.T.);
#166=EDGE_CURVE('',#136,#137,#65,.T.);
#167=EDGE_CURVE('',#137,#138,#120,.T.);
#168=EDGE_CURVE('',#138,#135,#66,.T.);
#169=EDGE_CURVE('',#138,#139,#67,.T.);
#170=EDGE_CURVE('',#140,#139,#68,.T.);
#171=EDGE_CURVE('',#135,#140,#69,.T.);
#172=EDGE_CURVE('',#141,#137,#70,.T.);
#173=EDGE_CURVE('',#142,#141,#121,.T.);
#174=EDGE_CURVE('',#143,#142,#71,.T.);
#175=EDGE_CURVE('',#144,#143,#122,.T.);
#176=EDGE_CURVE('',#145,#144,#72,.T.);
#177=EDGE_CURVE('',#146,#145,#123,.T.);
#178=EDGE_CURVE('',#147,#146,#73,.T.);
#179=EDGE_CURVE('',#148,#147,#124,.T.);
#180=EDGE_CURVE('',#149,#148,#74,.T.);
#181=EDGE_CURVE('',#139,#149,#125,.T.);
#182=EDGE_CURVE('',#150,#140,#126,.T.);
#183=EDGE_CURVE('',#149,#150,#75,.T.);
#184=EDGE_CURVE('',#151,#148,#76,.T.);
#185=EDGE_CURVE('',#150,#151,#77,.T.);
#186=EDGE_CURVE('',#152,#153,#127,.T.);
#187=EDGE_CURVE('',#153,#144,#78,.T.);
#188=EDGE_CURVE('',#143,#152,#79,.T.);
#189=EDGE_CURVE('',#154,#153,#80,.T.);
#190=EDGE_CURVE('',#145,#154,#81,.T.);
#191=EDGE_CURVE('',#154,#155,#128,.T.);
#192=EDGE_CURVE('',#155,#146,#82,.T.);
#193=EDGE_CURVE('',#156,#157,#129,.T.);
#194=EDGE_CURVE('',#157,#142,#83,.T.);
#195=EDGE_CURVE('',#141,#156,#84,.T.);
#196=EDGE_CURVE('',#152,#157,#85,.T.);
#197=EDGE_CURVE('',#147,#158,#86,.T.);
#198=EDGE_CURVE('',#158,#151,#130,.T.);
#199=EDGE_CURVE('',#158,#155,#87,.T.);
#200=EDGE_CURVE('',#156,#136,#88,.T.);
#201=ORIENTED_EDGE('',*,*,#159,.F.);
#202=ORIENTED_EDGE('',*,*,#160,.T.);
#203=ORIENTED_EDGE('',*,*,#161,.F.);
#204=ORIENTED_EDGE('',*,*,#160,.F.);
#205=ORIENTED_EDGE('',*,*,#162,.F.);
#206=ORIENTED_EDGE('',*,*,#163,.T.);
#207=ORIENTED_EDGE('',*,*,#164,.F.);
#208=ORIENTED_EDGE('',*,*,#163,.F.);
#209=ORIENTED_EDGE('',*,*,#165,.T.);
#210=ORIENTED_EDGE('',*,*,#166,.T.);
#211=ORIENTED_EDGE('',*,*,#167,.T.);
#212=ORIENTED_EDGE('',*,*,#168,.T.);
#213=ORIENTED_EDGE('',*,*,#168,.F.);
#214=ORIENTED_EDGE('',*,*,#169,.T.);
#215=ORIENTED_EDGE('',*,*,#170,.F.);
#216=ORIENTED_EDGE('',*,*,#171,.F.);
#217=ORIENTED_EDGE('',*,*,#167,.F.);
#218=ORIENTED_EDGE('',*,*,#172,.F.);
#219=ORIENTED_EDGE('',*,*,#173,.F.);
#220=ORIENTED_EDGE('',*,*,#174,.F.);
#221=ORIENTED_EDGE('',*,*,#175,.F.);
#222=ORIENTED_EDGE('',*,*,#176,.F.);
#223=ORIENTED_EDGE('',*,*,#177,.F.);
#224=ORIENTED_EDGE('',*,*,#178,.F.);
#225=ORIENTED_EDGE('',*,*,#179,.F.);
#226=ORIENTED_EDGE('',*,*,#180,.F.);
#227=ORIENTED_EDGE('',*,*,#181,.F.);
#228=ORIENTED_EDGE('',*,*,#169,.F.);
#229=ORIENTED_EDGE('',*,*,#182,.T.);
#230=ORIENTED_EDGE('',*,*,#170,.T.);
#231=ORIENTED_EDGE('',*,*,#181,.T.);
#232=ORIENTED_EDGE('',*,*,#183,.T.);
#233=ORIENTED_EDGE('',*,*,#183,.F.);
#234=ORIENTED_EDGE('',*,*,#180,.T.);
#235=ORIENTED_EDGE('',*,*,#184,.F.);
#236=ORIENTED_EDGE('',*,*,#185,.F.);
#237=ORIENTED_EDGE('',*,*,#159,.T.);
#238=ORIENTED_EDGE('',*,*,#186,.T.);
#239=ORIENTED_EDGE('',*,*,#187,.T.);
#240=ORIENTED_EDGE('',*,*,#175,.T.);
#241=ORIENTED_EDGE('',*,*,#188,.T.);
#242=ORIENTED_EDGE('',*,*,#187,.F.);
#243=ORIENTED_EDGE('',*,*,#189,.F.);
#244=ORIENTED_EDGE('',*,*,#190,.F.);
#245=ORIENTED_EDGE('',*,*,#176,.T.);
#246=ORIENTED_EDGE('',*,*,#191,.T.);
#247=ORIENTED_EDGE('',*,*,#192,.T.);
#248=ORIENTED_EDGE('',*,*,#177,.T.);
#249=ORIENTED_EDGE('',*,*,#190,.T.);
#250=ORIENTED_EDGE('',*,*,#193,.T.);
#251=ORIENTED_EDGE('',*,*,#194,.T.);
#252=ORIENTED_EDGE('',*,*,#173,.T.);
#253=ORIENTED_EDGE('',*,*,#195,.T.);
#254=ORIENTED_EDGE('',*,*,#188,.F.);
#255=ORIENTED_EDGE('',*,*,#174,.T.);
#256=ORIENTED_EDGE('',*,*,#194,.F.);
#257=ORIENTED_EDGE('',*,*,#196,.F.);
#258=ORIENTED_EDGE('',*,*,#164,.T.);
#259=ORIENTED_EDGE('',*,*,#179,.T.);
#260=ORIENTED_EDGE('',*,*,#197,.T.);
#261=ORIENTED_EDGE('',*,*,#198,.T.);
#262=ORIENTED_EDGE('',*,*,#184,.T.);
#263=ORIENTED_EDGE('',*,*,#192,.F.);
#264=ORIENTED_EDGE('',*,*,#199,.F.);
#265=ORIENTED_EDGE('',*,*,#197,.F.);
#266=ORIENTED_EDGE('',*,*,#178,.T.);
#267=ORIENTED_EDGE('',*,*,#162,.T.);
#268=ORIENTED_EDGE('',*,*,#166,.F.);
#269=ORIENTED_EDGE('',*,*,#200,.F.);
#270=ORIENTED_EDGE('',*,*,#195,.F.);
#271=ORIENTED_EDGE('',*,*,#172,.T.);
#272=ORIENTED_EDGE('',*,*,#161,.T.);
#273=ORIENTED_EDGE('',*,*,#165,.F.);
#274=ORIENTED_EDGE('',*,*,#171,.T.);
#275=ORIENTED_EDGE('',*,*,#182,.F.);
#276=ORIENTED_EDGE('',*,*,#185,.T.);
#277=ORIENTED_EDGE('',*,*,#198,.F.);
#278=ORIENTED_EDGE('',*,*,#199,.T.);
#279=ORIENTED_EDGE('',*,*,#191,.F.);
#280=ORIENTED_EDGE('',*,*,#189,.T.);
#281=ORIENTED_EDGE('',*,*,#186,.F.);
#282=ORIENTED_EDGE('',*,*,#196,.T.);
#283=ORIENTED_EDGE('',*,*,#193,.F.);
#284=ORIENTED_EDGE('',*,*,#200,.T.);
#285=CYLINDRICAL_SURFACE('',#332,1.5);
#286=CYLINDRICAL_SURFACE('',#335,1.5);
#287=CYLINDRICAL_SURFACE('',#338,2.);
#288=CYLINDRICAL_SURFACE('',#348,2.);
#289=CYLINDRICAL_SURFACE('',#351,2.);
#290=CYLINDRICAL_SURFACE('',#354,2.);
#291=CYLINDRICAL_SURFACE('',#356,2.);
#292=CYLINDRICAL_SURFACE('',#359,2.);
#293=ADVANCED_FACE('',(#27),#285,.F.);
#294=ADVANCED_FACE('',(#28),#286,.F.);
#295=ADVANCED_FACE('',(#29),#287,.T.);
#296=ADVANCED_FACE('',(#30),#19,.T.);
#297=ADVANCED_FACE('',(#31),#20,.F.);
#298=ADVANCED_FACE('',(#32),#288,.T.);
#299=ADVANCED_FACE('',(#33,#15),#21,.T.);
#300=ADVANCED_FACE('',(#34),#289,.T.);
#301=ADVANCED_FACE('',(#35),#22,.T.);
#302=ADVANCED_FACE('',(#36),#290,.T.);
#303=ADVANCED_FACE('',(#37),#291,.T.);
#304=ADVANCED_FACE('',(#38,#16),#23,.T.);
#305=ADVANCED_FACE('',(#39),#292,.F.);
#306=ADVANCED_FACE('',(#40,#17),#24,.T.);
#307=ADVANCED_FACE('',(#41,#18),#25,.T.);
#308=ADVANCED_FACE('',(#42),#26,.T.);
#309=CLOSED_SHELL('',(#293,#294,#295,#296,#297,#298,#299,#300,#301,#302,
#303,#304,#305,#306,#307,#308));
#310=DERIVED_UNIT_ELEMENT(#313,1.);
#311=DERIVED_UNIT_ELEMENT(#548,-3.);
#312=DIMENSIONAL_EXPONENTS(0.,1.,0.,0.,0.,0.,0.);
#313=(
CONVERSION_BASED_UNIT('gram',#315)
MASS_UNIT()
NAMED_UNIT(#312)
);
#314=(
MASS_UNIT()
NAMED_UNIT(*)
SI_UNIT(.KILO.,.GRAM.)
);
#315=MASS_MEASURE_WITH_UNIT(MASS_MEASURE(0.001),#314);
#316=DERIVED_UNIT((#310,#311));
#317=MEASURE_REPRESENTATION_ITEM('density measure',
POSITIVE_RATIO_MEASURE(1.),#316);
#318=PROPERTY_DEFINITION_REPRESENTATION(#323,#320);
#319=PROPERTY_DEFINITION_REPRESENTATION(#324,#321);
#320=REPRESENTATION('material name',(#322),#545);
#321=REPRESENTATION('density',(#317),#545);
#322=DESCRIPTIVE_REPRESENTATION_ITEM('Generic','Generic');
#323=PROPERTY_DEFINITION('material property','material name',#555);
#324=PROPERTY_DEFINITION('material property','density of part',#555);
#325=DATE_TIME_ROLE('creation_date');
#326=APPLIED_DATE_AND_TIME_ASSIGNMENT(#327,#325,(#555));
#327=DATE_AND_TIME(#328,#329);
#328=CALENDAR_DATE(2025,9,4);
#329=LOCAL_TIME(0,0,0.,#330);
#330=COORDINATED_UNIVERSAL_TIME_OFFSET(0,0,.BEHIND.);
#331=AXIS2_PLACEMENT_3D('',#456,#364,#365);
#332=AXIS2_PLACEMENT_3D('',#457,#366,#367);
#333=AXIS2_PLACEMENT_3D('',#459,#368,#369);
#334=AXIS2_PLACEMENT_3D('',#462,#371,#372);
#335=AXIS2_PLACEMENT_3D('',#463,#373,#374);
#336=AXIS2_PLACEMENT_3D('',#465,#375,#376);
#337=AXIS2_PLACEMENT_3D('',#468,#378,#379);
#338=AXIS2_PLACEMENT_3D('',#469,#380,#381);
#339=AXIS2_PLACEMENT_3D('',#472,#382,#383);
#340=AXIS2_PLACEMENT_3D('',#476,#385,#386);
#341=AXIS2_PLACEMENT_3D('',#478,#388,#389);
#342=AXIS2_PLACEMENT_3D('',#484,#393,#394);
#343=AXIS2_PLACEMENT_3D('',#488,#396,#397);
#344=AXIS2_PLACEMENT_3D('',#492,#399,#400);
#345=AXIS2_PLACEMENT_3D('',#496,#402,#403);
#346=AXIS2_PLACEMENT_3D('',#500,#405,#406);
#347=AXIS2_PLACEMENT_3D('',#503,#408,#409);
#348=AXIS2_PLACEMENT_3D('',#504,#410,#411);
#349=AXIS2_PLACEMENT_3D('',#506,#412,#413);
#350=AXIS2_PLACEMENT_3D('',#508,#415,#416);
#351=AXIS2_PLACEMENT_3D('',#512,#419,#420);
#352=AXIS2_PLACEMENT_3D('',#515,#421,#422);
#353=AXIS2_PLACEMENT_3D('',#518,#425,#426);
#354=AXIS2_PLACEMENT_3D('',#522,#429,#430);
#355=AXIS2_PLACEMENT_3D('',#524,#431,#432);
#356=AXIS2_PLACEMENT_3D('',#526,#434,#435);
#357=AXIS2_PLACEMENT_3D('',#529,#436,#437);
#358=AXIS2_PLACEMENT_3D('',#532,#440,#441);
#359=AXIS2_PLACEMENT_3D('',#534,#443,#444);
#360=AXIS2_PLACEMENT_3D('',#537,#446,#447);
#361=AXIS2_PLACEMENT_3D('',#538,#448,#449);
#362=AXIS2_PLACEMENT_3D('',#540,#451,#452);
#363=AXIS2_PLACEMENT_3D('',#542,#454,#455);
#364=DIRECTION('axis',(0.,0.,1.));
#365=DIRECTION('refdir',(1.,0.,0.));
#366=DIRECTION('center_axis',(0.,0.,-1.));
#367=DIRECTION('ref_axis',(1.,0.,0.));
#368=DIRECTION('center_axis',(0.,1.11022302462516E-16,-1.));
#369=DIRECTION('ref_axis',(1.,0.,0.));
#370=DIRECTION('',(0.,0.,-1.));
#371=DIRECTION('center_axis',(0.,-1.83697019872103E-16,1.));
#372=DIRECTION('ref_axis',(1.,0.,0.));
#373=DIRECTION('center_axis',(0.,-1.,-2.96059473233375E-16));
#374=DIRECTION('ref_axis',(1.,0.,0.));
#375=DIRECTION('center_axis',(0.,-1.,-3.33066907387547E-16));
#376=DIRECTION('ref_axis',(1.,0.,0.));
#377=DIRECTION('',(0.,-1.,-2.96059473233375E-16));
#378=DIRECTION('center_axis',(0.,1.,0.));
#379=DIRECTION('ref_axis',(1.,0.,0.));
#380=DIRECTION('center_axis',(1.,0.,0.));
#381=DIRECTION('ref_axis',(0.,0.707106781186547,-0.707106781186548));
#382=DIRECTION('center_axis',(-1.,0.,0.));
#383=DIRECTION('ref_axis',(0.,0.707106781186547,-0.707106781186548));
#384=DIRECTION('',(-1.,0.,0.));
#385=DIRECTION('center_axis',(1.,0.,0.));
#386=DIRECTION('ref_axis',(0.,0.707106781186547,-0.707106781186548));
#387=DIRECTION('',(1.,0.,0.));
#388=DIRECTION('center_axis',(0.,1.,0.));
#389=DIRECTION('ref_axis',(0.,0.,1.));
#390=DIRECTION('',(0.,0.,1.));
#391=DIRECTION('',(-1.,0.,0.));
#392=DIRECTION('',(0.,0.,1.));
#393=DIRECTION('center_axis',(1.,0.,0.));
#394=DIRECTION('ref_axis',(0.,0.,-1.));
#395=DIRECTION('',(0.,1.,1.83697019872103E-16));
#396=DIRECTION('center_axis',(1.,0.,0.));
#397=DIRECTION('ref_axis',(0.,-0.707106781186547,-0.707106781186548));
#398=DIRECTION('',(0.,0.,-1.));
#399=DIRECTION('center_axis',(1.,0.,0.));
#400=DIRECTION('ref_axis',(0.,-0.707106781186547,0.707106781186548));
#401=DIRECTION('',(0.,-1.,0.));
#402=DIRECTION('center_axis',(1.,0.,0.));
#403=DIRECTION('ref_axis',(0.,0.707106781186548,0.707106781186547));
#404=DIRECTION('',(0.,-3.33066907387547E-16,1.));
#405=DIRECTION('center_axis',(-1.,0.,0.));
#406=DIRECTION('ref_axis',(0.,-0.707106781186547,-0.707106781186548));
#407=DIRECTION('',(0.,-1.,-1.11022302462516E-16));
#408=DIRECTION('center_axis',(1.,0.,0.));
#409=DIRECTION('ref_axis',(0.,0.707106781186548,0.707106781186547));
#410=DIRECTION('center_axis',(1.,0.,0.));
#411=DIRECTION('ref_axis',(0.,0.707106781186548,0.707106781186547));
#412=DIRECTION('center_axis',(-1.,0.,0.));
#413=DIRECTION('ref_axis',(0.,0.707106781186548,0.707106781186547));
#414=DIRECTION('',(1.,0.,0.));
#415=DIRECTION('center_axis',(0.,-1.11022302462516E-16,1.));
#416=DIRECTION('ref_axis',(0.,-1.,-1.11022302462516E-16));
#417=DIRECTION('',(-1.,0.,0.));
#418=DIRECTION('',(0.,-1.,-1.11022302462516E-16));
#419=DIRECTION('center_axis',(1.,0.,0.));
#420=DIRECTION('ref_axis',(0.,-0.707106781186547,0.707106781186548));
#421=DIRECTION('center_axis',(-1.,0.,0.));
#422=DIRECTION('ref_axis',(0.,-0.707106781186547,0.707106781186548));
#423=DIRECTION('',(-1.,0.,0.));
#424=DIRECTION('',(1.,0.,0.));
#425=DIRECTION('center_axis',(0.,0.,1.));
#426=DIRECTION('ref_axis',(0.,-1.,0.));
#427=DIRECTION('',(0.,-1.,0.));
#428=DIRECTION('',(1.,0.,0.));
#429=DIRECTION('center_axis',(1.,0.,0.));
#430=DIRECTION('ref_axis',(0.,0.707106781186548,0.707106781186547));
#431=DIRECTION('center_axis',(-1.,0.,0.));
#432=DIRECTION('ref_axis',(0.,0.707106781186548,0.707106781186547));
#433=DIRECTION('',(-1.,0.,0.));
#434=DIRECTION('center_axis',(1.,0.,0.));
#435=DIRECTION('ref_axis',(0.,-0.707106781186547,-0.707106781186548));
#436=DIRECTION('center_axis',(-1.,0.,0.));
#437=DIRECTION('ref_axis',(0.,-0.707106781186547,-0.707106781186548));
#438=DIRECTION('',(-1.,0.,0.));
#439=DIRECTION('',(1.,0.,0.));
#440=DIRECTION('center_axis',(0.,-1.,0.));
#441=DIRECTION('ref_axis',(0.,0.,-1.));
#442=DIRECTION('',(0.,0.,-1.));
#443=DIRECTION('center_axis',(1.,0.,0.));
#444=DIRECTION('ref_axis',(0.,-0.707106781186547,-0.707106781186548));
#445=DIRECTION('',(1.,0.,0.));
#446=DIRECTION('center_axis',(1.,0.,0.));
#447=DIRECTION('ref_axis',(0.,-0.707106781186547,-0.707106781186548));
#448=DIRECTION('center_axis',(0.,1.,3.33066907387547E-16));
#449=DIRECTION('ref_axis',(0.,-3.33066907387547E-16,1.));
#450=DIRECTION('',(0.,-3.33066907387547E-16,1.));
#451=DIRECTION('center_axis',(0.,1.83697019872103E-16,-1.));
#452=DIRECTION('ref_axis',(0.,1.,1.83697019872103E-16));
#453=DIRECTION('',(0.,1.,1.83697019872103E-16));
#454=DIRECTION('center_axis',(1.,0.,0.));
#455=DIRECTION('ref_axis',(0.,0.,-1.));
#456=CARTESIAN_POINT('',(0.,0.,0.));
#457=CARTESIAN_POINT('Origin',(5.,10.,5.));
#458=CARTESIAN_POINT('',(3.5,10.,5.));
#459=CARTESIAN_POINT('Origin',(5.,10.,5.));
#460=CARTESIAN_POINT('',(3.5,10.,-3.37445951098918E-32));
#461=CARTESIAN_POINT('',(3.5,10.,5.));
#462=CARTESIAN_POINT('Origin',(5.,10.,0.));
#463=CARTESIAN_POINT('Origin',(5.,5.,10.));
#464=CARTESIAN_POINT('',(3.5,5.,10.));
#465=CARTESIAN_POINT('Origin',(5.,5.,10.));
#466=CARTESIAN_POINT('',(3.5,1.66533453693773E-15,10.));
#467=CARTESIAN_POINT('',(3.5,5.,10.));
#468=CARTESIAN_POINT('Origin',(5.,1.66533453693773E-15,10.));
#469=CARTESIAN_POINT('Origin',(0.,13.,2.));
#470=CARTESIAN_POINT('',(10.,15.,2.));
#471=CARTESIAN_POINT('',(10.,13.,2.38806125833734E-15));
#472=CARTESIAN_POINT('Origin',(10.,13.,2.));
#473=CARTESIAN_POINT('',(0.,13.,2.38806125833734E-15));
#474=CARTESIAN_POINT('',(0.,13.,2.4980018054066E-15));
#475=CARTESIAN_POINT('',(0.,15.,2.));
#476=CARTESIAN_POINT('Origin',(0.,13.,2.));
#477=CARTESIAN_POINT('',(0.,15.,2.));
#478=CARTESIAN_POINT('Origin',(0.,15.,0.));
#479=CARTESIAN_POINT('',(0.,15.,3.));
#480=CARTESIAN_POINT('',(0.,15.,0.));
#481=CARTESIAN_POINT('',(10.,15.,3.));
#482=CARTESIAN_POINT('',(0.,15.,3.));
#483=CARTESIAN_POINT('',(10.,15.,0.));
#484=CARTESIAN_POINT('Origin',(0.,7.5,7.5));
#485=CARTESIAN_POINT('',(0.,2.,3.67394039744206E-16));
#486=CARTESIAN_POINT('',(0.,0.,0.));
#487=CARTESIAN_POINT('',(0.,0.,2.));
#488=CARTESIAN_POINT('Origin',(0.,2.,2.));
#489=CARTESIAN_POINT('',(0.,0.,13.));
#490=CARTESIAN_POINT('',(0.,0.,15.));
#491=CARTESIAN_POINT('',(0.,2.,15.));
#492=CARTESIAN_POINT('Origin',(0.,2.,13.));
#493=CARTESIAN_POINT('',(0.,3.,15.));
#494=CARTESIAN_POINT('',(0.,5.,15.));
#495=CARTESIAN_POINT('',(0.,5.,13.));
#496=CARTESIAN_POINT('Origin',(0.,3.,13.));
#497=CARTESIAN_POINT('',(0.,5.,7.));
#498=CARTESIAN_POINT('',(0.,5.,5.));
#499=CARTESIAN_POINT('',(0.,7.,5.));
#500=CARTESIAN_POINT('Origin',(0.,7.,7.));
#501=CARTESIAN_POINT('',(0.,13.,5.));
#502=CARTESIAN_POINT('',(0.,15.,5.));
#503=CARTESIAN_POINT('Origin',(0.,13.,3.));
#504=CARTESIAN_POINT('Origin',(0.,13.,3.));
#505=CARTESIAN_POINT('',(10.,13.,5.));
#506=CARTESIAN_POINT('Origin',(10.,13.,3.));
#507=CARTESIAN_POINT('',(0.,13.,5.));
#508=CARTESIAN_POINT('Origin',(0.,15.,5.));
#509=CARTESIAN_POINT('',(10.,7.,5.));
#510=CARTESIAN_POINT('',(0.,7.,5.));
#511=CARTESIAN_POINT('',(10.,15.,5.));
#512=CARTESIAN_POINT('Origin',(0.,2.,13.));
#513=CARTESIAN_POINT('',(10.,0.,13.));
#514=CARTESIAN_POINT('',(10.,2.,15.));
#515=CARTESIAN_POINT('Origin',(10.,2.,13.));
#516=CARTESIAN_POINT('',(0.,2.,15.));
#517=CARTESIAN_POINT('',(0.,0.,13.));
#518=CARTESIAN_POINT('Origin',(0.,5.,15.));
#519=CARTESIAN_POINT('',(10.,3.,15.));
#520=CARTESIAN_POINT('',(10.,5.,15.));
#521=CARTESIAN_POINT('',(0.,3.,15.));
#522=CARTESIAN_POINT('Origin',(0.,3.,13.));
#523=CARTESIAN_POINT('',(10.,5.,13.));
#524=CARTESIAN_POINT('Origin',(10.,3.,13.));
#525=CARTESIAN_POINT('',(0.,5.,13.));
#526=CARTESIAN_POINT('Origin',(0.,2.,2.));
#527=CARTESIAN_POINT('',(10.,2.,3.67394039744206E-16));
#528=CARTESIAN_POINT('',(10.,0.,2.));
#529=CARTESIAN_POINT('Origin',(10.,2.,2.));
#530=CARTESIAN_POINT('',(0.,0.,2.));
#531=CARTESIAN_POINT('',(0.,2.,2.77555756156289E-16));
#532=CARTESIAN_POINT('Origin',(0.,0.,15.));
#533=CARTESIAN_POINT('',(10.,0.,15.));
#534=CARTESIAN_POINT('Origin',(0.,7.,7.));
#535=CARTESIAN_POINT('',(10.,5.,7.));
#536=CARTESIAN_POINT('',(0.,5.,7.));
#537=CARTESIAN_POINT('Origin',(10.,7.,7.));
#538=CARTESIAN_POINT('Origin',(0.,5.,5.));
#539=CARTESIAN_POINT('',(10.,5.,5.));
#540=CARTESIAN_POINT('Origin',(0.,0.,0.));
#541=CARTESIAN_POINT('',(10.,0.,0.));
#542=CARTESIAN_POINT('Origin',(10.,7.5,7.5));
#543=UNCERTAINTY_MEASURE_WITH_UNIT(LENGTH_MEASURE(0.01),#547,
'DISTANCE_ACCURACY_VALUE',
'Maximum model space distance between geometric entities at asserted c
onnectivities');
#544=UNCERTAINTY_MEASURE_WITH_UNIT(LENGTH_MEASURE(0.01),#547,
'DISTANCE_ACCURACY_VALUE',
'Maximum model space distance between geometric entities at asserted c
onnectivities');
#545=(
GEOMETRIC_REPRESENTATION_CONTEXT(3)
GLOBAL_UNCERTAINTY_ASSIGNED_CONTEXT((#543))
GLOBAL_UNIT_ASSIGNED_CONTEXT((#547,#549,#550))
REPRESENTATION_CONTEXT('','3D')
);
#546=(
GEOMETRIC_REPRESENTATION_CONTEXT(3)
GLOBAL_UNCERTAINTY_ASSIGNED_CONTEXT((#544))
GLOBAL_UNIT_ASSIGNED_CONTEXT((#547,#549,#550))
REPRESENTATION_CONTEXT('','3D')
);
#547=(
LENGTH_UNIT()
NAMED_UNIT(*)
SI_UNIT(.MILLI.,.METRE.)
);
#548=(
LENGTH_UNIT()
NAMED_UNIT(*)
SI_UNIT(.CENTI.,.METRE.)
);
#549=(
NAMED_UNIT(*)
PLANE_ANGLE_UNIT()
SI_UNIT($,.RADIAN.)
);
#550=(
NAMED_UNIT(*)
SI_UNIT($,.STERADIAN.)
SOLID_ANGLE_UNIT()
);
#551=SHAPE_DEFINITION_REPRESENTATION(#552,#553);
#552=PRODUCT_DEFINITION_SHAPE('',$,#555);
#553=SHAPE_REPRESENTATION('',(#331),#545);
#554=PRODUCT_DEFINITION_CONTEXT('part definition',#559,'design');
#555=PRODUCT_DEFINITION('L joint ','L joint ',#556,#554);
#556=PRODUCT_DEFINITION_FORMATION('',$,#561);
#557=PRODUCT_RELATED_PRODUCT_CATEGORY('L joint ','L joint ',(#561));
#558=APPLICATION_PROTOCOL_DEFINITION('international standard',
'automotive_design',2009,#559);
#559=APPLICATION_CONTEXT(
'Core Data for Automotive Mechanical Design Process');
#560=PRODUCT_CONTEXT('part definition',#559,'mechanical');
#561=PRODUCT('L joint ','L joint ',$,(#560));
#562=PRESENTATION_STYLE_ASSIGNMENT((#563));
#563=SURFACE_STYLE_USAGE(.BOTH.,#566);
#564=SURFACE_STYLE_RENDERING_WITH_PROPERTIES($,#570,(#565));
#565=SURFACE_STYLE_TRANSPARENT(0.);
#566=SURFACE_SIDE_STYLE('',(#567,#564));
#567=SURFACE_STYLE_FILL_AREA(#568);
#568=FILL_AREA_STYLE('',(#569));
#569=FILL_AREA_STYLE_COLOUR('',#570);
#570=COLOUR_RGB('',0.749019607843137,0.749019607843137,0.749019607843137);
ENDSEC;
END-ISO-10303-21;
