ISO-10303-21;
HEADER;
/* Generated by software containing ST-Developer
 * from STEP Tools, Inc. (www.steptools.com) 
 */

FILE_DESCRIPTION(
/* description */ (''),
/* implementation_level */ '2;1');

FILE_NAME(
/* name */ 'SHAFT.stp',
/* time_stamp */ '2025-04-10T22:01:33+02:00',
/* author */ ('Abdullah'),
/* organization */ (''),
/* preprocessor_version */ 'ST-DEVELOPER v20',
/* originating_system */ 'Autodesk Inventor 2025',
/* authorisation */ '');

FILE_SCHEMA (('AUTOMOTIVE_DESIGN { 1 0 10303 214 3 1 1 }'));
ENDSEC;

DATA;
#10=MECHANICAL_DESIGN_GEOMETRIC_PRESENTATION_REPRESENTATION('',(#19,#20),
#717);
#11=GEOMETRICALLY_BOUNDED_WIREFRAME_SHAPE_REPRESENTATION('',(#12,#13,#14,
#15),#716);
#12=GEOMETRIC_CURVE_SET('Sketch7',(#709));
#13=GEOMETRIC_CURVE_SET('Sketch9',(#710));
#14=GEOMETRIC_CURVE_SET('Sketch14',(#711));
#15=GEOMETRIC_CURVE_SET('Sketch19',(#184,#713));
#16=SHAPE_REPRESENTATION_RELATIONSHIP('SRR','None',#724,#18);
#17=SHAPE_REPRESENTATION_RELATIONSHIP('SRR','None',#724,#11);
#18=ADVANCED_BREP_SHAPE_REPRESENTATION('',(#21),#716);
#19=STYLED_ITEM('',(#734),#21);
#20=STYLED_ITEM('',(#735),#184);
#21=MANIFOLD_SOLID_BREP('Solid1',#392);
#22=FACE_BOUND('',#81,.T.);
#23=FACE_BOUND('',#83,.T.);
#24=FACE_BOUND('',#96,.T.);
#25=FACE_BOUND('',#97,.T.);
#26=FACE_BOUND('',#98,.T.);
#27=FACE_BOUND('',#100,.T.);
#28=FACE_BOUND('',#104,.T.);
#29=FACE_BOUND('',#106,.T.);
#30=FACE_BOUND('',#108,.T.);
#31=FACE_BOUND('',#112,.T.);
#32=FACE_BOUND('',#114,.T.);
#33=FACE_BOUND('',#119,.T.);
#34=PLANE('',#418);
#35=PLANE('',#420);
#36=PLANE('',#422);
#37=PLANE('',#425);
#38=PLANE('',#429);
#39=PLANE('',#433);
#40=PLANE('',#437);
#41=PLANE('',#438);
#42=PLANE('',#441);
#43=PLANE('',#443);
#44=PLANE('',#452);
#45=PLANE('',#453);
#46=PLANE('',#455);
#47=PLANE('',#462);
#48=PLANE('',#463);
#49=PLANE('',#469);
#50=FACE_OUTER_BOUND('',#79,.T.);
#51=FACE_OUTER_BOUND('',#80,.T.);
#52=FACE_OUTER_BOUND('',#82,.T.);
#53=FACE_OUTER_BOUND('',#84,.T.);
#54=FACE_OUTER_BOUND('',#85,.T.);
#55=FACE_OUTER_BOUND('',#86,.T.);
#56=FACE_OUTER_BOUND('',#87,.T.);
#57=FACE_OUTER_BOUND('',#88,.T.);
#58=FACE_OUTER_BOUND('',#89,.T.);
#59=FACE_OUTER_BOUND('',#90,.T.);
#60=FACE_OUTER_BOUND('',#91,.T.);
#61=FACE_OUTER_BOUND('',#92,.T.);
#62=FACE_OUTER_BOUND('',#93,.T.);
#63=FACE_OUTER_BOUND('',#94,.T.);
#64=FACE_OUTER_BOUND('',#95,.T.);
#65=FACE_OUTER_BOUND('',#99,.T.);
#66=FACE_OUTER_BOUND('',#101,.T.);
#67=FACE_OUTER_BOUND('',#102,.T.);
#68=FACE_OUTER_BOUND('',#103,.T.);
#69=FACE_OUTER_BOUND('',#105,.T.);
#70=FACE_OUTER_BOUND('',#107,.T.);
#71=FACE_OUTER_BOUND('',#109,.T.);
#72=FACE_OUTER_BOUND('',#110,.T.);
#73=FACE_OUTER_BOUND('',#111,.T.);
#74=FACE_OUTER_BOUND('',#113,.T.);
#75=FACE_OUTER_BOUND('',#115,.T.);
#76=FACE_OUTER_BOUND('',#116,.T.);
#77=FACE_OUTER_BOUND('',#117,.T.);
#78=FACE_OUTER_BOUND('',#118,.T.);
#79=EDGE_LOOP('',(#260,#261,#262,#263));
#80=EDGE_LOOP('',(#264));
#81=EDGE_LOOP('',(#265,#266));
#82=EDGE_LOOP('',(#267));
#83=EDGE_LOOP('',(#268));
#84=EDGE_LOOP('',(#269,#270,#271,#272));
#85=EDGE_LOOP('',(#273,#274,#275,#276));
#86=EDGE_LOOP('',(#277,#278));
#87=EDGE_LOOP('',(#279,#280,#281,#282));
#88=EDGE_LOOP('',(#283));
#89=EDGE_LOOP('',(#284,#285,#286,#287));
#90=EDGE_LOOP('',(#288));
#91=EDGE_LOOP('',(#289,#290,#291,#292));
#92=EDGE_LOOP('',(#293));
#93=EDGE_LOOP('',(#294,#295,#296,#297));
#94=EDGE_LOOP('',(#298,#299,#300,#301));
#95=EDGE_LOOP('',(#302,#303));
#96=EDGE_LOOP('',(#304));
#97=EDGE_LOOP('',(#305));
#98=EDGE_LOOP('',(#306));
#99=EDGE_LOOP('',(#307));
#100=EDGE_LOOP('',(#308,#309));
#101=EDGE_LOOP('',(#310,#311,#312,#313));
#102=EDGE_LOOP('',(#314,#315,#316,#317));
#103=EDGE_LOOP('',(#318));
#104=EDGE_LOOP('',(#319));
#105=EDGE_LOOP('',(#320));
#106=EDGE_LOOP('',(#321));
#107=EDGE_LOOP('',(#322));
#108=EDGE_LOOP('',(#323));
#109=EDGE_LOOP('',(#324,#325,#326,#327));
#110=EDGE_LOOP('',(#328,#329,#330,#331));
#111=EDGE_LOOP('',(#332));
#112=EDGE_LOOP('',(#333));
#113=EDGE_LOOP('',(#334));
#114=EDGE_LOOP('',(#335));
#115=EDGE_LOOP('',(#336,#337,#338,#339));
#116=EDGE_LOOP('',(#340,#341,#342,#343));
#117=EDGE_LOOP('',(#344,#345,#346,#347));
#118=EDGE_LOOP('',(#348));
#119=EDGE_LOOP('',(#349));
#120=LINE('',#609,#139);
#121=LINE('',#614,#140);
#122=LINE('',#621,#141);
#123=LINE('',#623,#142);
#124=LINE('',#624,#143);
#125=LINE('',#632,#144);
#126=LINE('',#639,#145);
#127=LINE('',#646,#146);
#128=LINE('',#652,#147);
#129=LINE('',#654,#148);
#130=LINE('',#656,#149);
#131=LINE('',#657,#150);
#132=LINE('',#660,#151);
#133=LINE('',#672,#152);
#134=LINE('',#678,#153);
#135=LINE('',#689,#154);
#136=LINE('',#695,#155);
#137=LINE('',#702,#156);
#138=LINE('',#706,#157);
#139=VECTOR('',#477,6.);
#140=VECTOR('',#482,10.);
#141=VECTOR('',#491,10.);
#142=VECTOR('',#492,10.);
#143=VECTOR('',#493,10.);
#144=VECTOR('',#504,3.);
#145=VECTOR('',#513,3.);
#146=VECTOR('',#522,3.);
#147=VECTOR('',#529,10.);
#148=VECTOR('',#530,10.);
#149=VECTOR('',#531,10.);
#150=VECTOR('',#532,10.);
#151=VECTOR('',#535,25.);
#152=VECTOR('',#552,29.5);
#153=VECTOR('',#559,38.);
#154=VECTOR('',#574,29.5);
#155=VECTOR('',#581,38.);
#156=VECTOR('',#592,40.);
#157=VECTOR('',#597,22.5);
#158=CIRCLE('',#416,6.);
#159=CIRCLE('',#417,6.);
#160=CIRCLE('',#419,2.);
#161=CIRCLE('',#421,25.);
#162=CIRCLE('',#424,2.);
#163=CIRCLE('',#427,3.);
#164=CIRCLE('',#428,3.);
#165=CIRCLE('',#431,3.);
#166=CIRCLE('',#432,3.);
#167=CIRCLE('',#435,3.);
#168=CIRCLE('',#436,3.);
#169=CIRCLE('',#440,25.);
#170=CIRCLE('',#442,17.5);
#171=CIRCLE('',#444,22.5);
#172=CIRCLE('',#445,17.5);
#173=CIRCLE('',#447,29.5);
#174=CIRCLE('',#448,29.5);
#175=CIRCLE('',#450,38.);
#176=CIRCLE('',#451,38.);
#177=CIRCLE('',#454,40.);
#178=CIRCLE('',#456,29.5);
#179=CIRCLE('',#458,29.5);
#180=CIRCLE('',#460,38.);
#181=CIRCLE('',#461,38.);
#182=CIRCLE('',#464,40.);
#183=CIRCLE('',#468,22.5);
#184=CIRCLE('',#470,3.);
#185=VERTEX_POINT('',#606);
#186=VERTEX_POINT('',#608);
#187=VERTEX_POINT('',#612);
#188=VERTEX_POINT('',#613);
#189=VERTEX_POINT('',#617);
#190=VERTEX_POINT('',#620);
#191=VERTEX_POINT('',#622);
#192=VERTEX_POINT('',#629);
#193=VERTEX_POINT('',#631);
#194=VERTEX_POINT('',#636);
#195=VERTEX_POINT('',#638);
#196=VERTEX_POINT('',#643);
#197=VERTEX_POINT('',#645);
#198=VERTEX_POINT('',#650);
#199=VERTEX_POINT('',#651);
#200=VERTEX_POINT('',#653);
#201=VERTEX_POINT('',#655);
#202=VERTEX_POINT('',#659);
#203=VERTEX_POINT('',#665);
#204=VERTEX_POINT('',#669);
#205=VERTEX_POINT('',#671);
#206=VERTEX_POINT('',#675);
#207=VERTEX_POINT('',#677);
#208=VERTEX_POINT('',#682);
#209=VERTEX_POINT('',#685);
#210=VERTEX_POINT('',#688);
#211=VERTEX_POINT('',#692);
#212=VERTEX_POINT('',#694);
#213=VERTEX_POINT('',#699);
#214=VERTEX_POINT('',#705);
#215=EDGE_CURVE('',#185,#185,#158,.T.);
#216=EDGE_CURVE('',#185,#186,#120,.T.);
#217=EDGE_CURVE('',#186,#186,#159,.T.);
#218=EDGE_CURVE('',#187,#188,#121,.T.);
#219=EDGE_CURVE('',#188,#187,#160,.T.);
#220=EDGE_CURVE('',#189,#189,#161,.T.);
#221=EDGE_CURVE('',#187,#190,#122,.T.);
#222=EDGE_CURVE('',#190,#191,#123,.T.);
#223=EDGE_CURVE('',#188,#191,#124,.T.);
#224=EDGE_CURVE('',#191,#190,#162,.T.);
#225=EDGE_CURVE('',#192,#192,#163,.T.);
#226=EDGE_CURVE('',#192,#193,#125,.T.);
#227=EDGE_CURVE('',#193,#193,#164,.T.);
#228=EDGE_CURVE('',#194,#194,#165,.T.);
#229=EDGE_CURVE('',#194,#195,#126,.T.);
#230=EDGE_CURVE('',#195,#195,#166,.T.);
#231=EDGE_CURVE('',#196,#196,#167,.T.);
#232=EDGE_CURVE('',#196,#197,#127,.T.);
#233=EDGE_CURVE('',#197,#197,#168,.T.);
#234=EDGE_CURVE('',#198,#199,#128,.T.);
#235=EDGE_CURVE('',#200,#198,#129,.T.);
#236=EDGE_CURVE('',#201,#200,#130,.T.);
#237=EDGE_CURVE('',#201,#199,#131,.T.);
#238=EDGE_CURVE('',#189,#202,#132,.T.);
#239=EDGE_CURVE('',#202,#202,#169,.T.);
#240=EDGE_CURVE('',#201,#200,#170,.T.);
#241=EDGE_CURVE('',#203,#203,#171,.T.);
#242=EDGE_CURVE('',#199,#198,#172,.T.);
#243=EDGE_CURVE('',#204,#204,#173,.T.);
#244=EDGE_CURVE('',#204,#205,#133,.T.);
#245=EDGE_CURVE('',#205,#205,#174,.T.);
#246=EDGE_CURVE('',#206,#206,#175,.T.);
#247=EDGE_CURVE('',#206,#207,#134,.T.);
#248=EDGE_CURVE('',#207,#207,#176,.T.);
#249=EDGE_CURVE('',#208,#208,#177,.T.);
#250=EDGE_CURVE('',#209,#209,#178,.T.);
#251=EDGE_CURVE('',#209,#210,#135,.T.);
#252=EDGE_CURVE('',#210,#210,#179,.T.);
#253=EDGE_CURVE('',#211,#211,#180,.T.);
#254=EDGE_CURVE('',#211,#212,#136,.T.);
#255=EDGE_CURVE('',#212,#212,#181,.T.);
#256=EDGE_CURVE('',#213,#213,#182,.T.);
#257=EDGE_CURVE('',#213,#208,#137,.T.);
#258=EDGE_CURVE('',#203,#214,#138,.T.);
#259=EDGE_CURVE('',#214,#214,#183,.T.);
#260=ORIENTED_EDGE('',*,*,#215,.F.);
#261=ORIENTED_EDGE('',*,*,#216,.T.);
#262=ORIENTED_EDGE('',*,*,#217,.F.);
#263=ORIENTED_EDGE('',*,*,#216,.F.);
#264=ORIENTED_EDGE('',*,*,#215,.T.);
#265=ORIENTED_EDGE('',*,*,#218,.T.);
#266=ORIENTED_EDGE('',*,*,#219,.T.);
#267=ORIENTED_EDGE('',*,*,#220,.F.);
#268=ORIENTED_EDGE('',*,*,#217,.T.);
#269=ORIENTED_EDGE('',*,*,#221,.T.);
#270=ORIENTED_EDGE('',*,*,#222,.T.);
#271=ORIENTED_EDGE('',*,*,#223,.F.);
#272=ORIENTED_EDGE('',*,*,#218,.F.);
#273=ORIENTED_EDGE('',*,*,#223,.T.);
#274=ORIENTED_EDGE('',*,*,#224,.T.);
#275=ORIENTED_EDGE('',*,*,#221,.F.);
#276=ORIENTED_EDGE('',*,*,#219,.F.);
#277=ORIENTED_EDGE('',*,*,#224,.F.);
#278=ORIENTED_EDGE('',*,*,#222,.F.);
#279=ORIENTED_EDGE('',*,*,#225,.F.);
#280=ORIENTED_EDGE('',*,*,#226,.T.);
#281=ORIENTED_EDGE('',*,*,#227,.T.);
#282=ORIENTED_EDGE('',*,*,#226,.F.);
#283=ORIENTED_EDGE('',*,*,#227,.F.);
#284=ORIENTED_EDGE('',*,*,#228,.F.);
#285=ORIENTED_EDGE('',*,*,#229,.T.);
#286=ORIENTED_EDGE('',*,*,#230,.T.);
#287=ORIENTED_EDGE('',*,*,#229,.F.);
#288=ORIENTED_EDGE('',*,*,#230,.F.);
#289=ORIENTED_EDGE('',*,*,#231,.F.);
#290=ORIENTED_EDGE('',*,*,#232,.T.);
#291=ORIENTED_EDGE('',*,*,#233,.T.);
#292=ORIENTED_EDGE('',*,*,#232,.F.);
#293=ORIENTED_EDGE('',*,*,#233,.F.);
#294=ORIENTED_EDGE('',*,*,#234,.F.);
#295=ORIENTED_EDGE('',*,*,#235,.F.);
#296=ORIENTED_EDGE('',*,*,#236,.F.);
#297=ORIENTED_EDGE('',*,*,#237,.T.);
#298=ORIENTED_EDGE('',*,*,#220,.T.);
#299=ORIENTED_EDGE('',*,*,#238,.T.);
#300=ORIENTED_EDGE('',*,*,#239,.F.);
#301=ORIENTED_EDGE('',*,*,#238,.F.);
#302=ORIENTED_EDGE('',*,*,#240,.F.);
#303=ORIENTED_EDGE('',*,*,#236,.T.);
#304=ORIENTED_EDGE('',*,*,#225,.T.);
#305=ORIENTED_EDGE('',*,*,#228,.T.);
#306=ORIENTED_EDGE('',*,*,#231,.T.);
#307=ORIENTED_EDGE('',*,*,#241,.F.);
#308=ORIENTED_EDGE('',*,*,#242,.T.);
#309=ORIENTED_EDGE('',*,*,#234,.T.);
#310=ORIENTED_EDGE('',*,*,#243,.F.);
#311=ORIENTED_EDGE('',*,*,#244,.T.);
#312=ORIENTED_EDGE('',*,*,#245,.T.);
#313=ORIENTED_EDGE('',*,*,#244,.F.);
#314=ORIENTED_EDGE('',*,*,#246,.F.);
#315=ORIENTED_EDGE('',*,*,#247,.T.);
#316=ORIENTED_EDGE('',*,*,#248,.T.);
#317=ORIENTED_EDGE('',*,*,#247,.F.);
#318=ORIENTED_EDGE('',*,*,#248,.F.);
#319=ORIENTED_EDGE('',*,*,#245,.F.);
#320=ORIENTED_EDGE('',*,*,#249,.T.);
#321=ORIENTED_EDGE('',*,*,#246,.T.);
#322=ORIENTED_EDGE('',*,*,#250,.T.);
#323=ORIENTED_EDGE('',*,*,#239,.T.);
#324=ORIENTED_EDGE('',*,*,#250,.F.);
#325=ORIENTED_EDGE('',*,*,#251,.T.);
#326=ORIENTED_EDGE('',*,*,#252,.T.);
#327=ORIENTED_EDGE('',*,*,#251,.F.);
#328=ORIENTED_EDGE('',*,*,#253,.F.);
#329=ORIENTED_EDGE('',*,*,#254,.T.);
#330=ORIENTED_EDGE('',*,*,#255,.T.);
#331=ORIENTED_EDGE('',*,*,#254,.F.);
#332=ORIENTED_EDGE('',*,*,#255,.F.);
#333=ORIENTED_EDGE('',*,*,#252,.F.);
#334=ORIENTED_EDGE('',*,*,#256,.T.);
#335=ORIENTED_EDGE('',*,*,#253,.T.);
#336=ORIENTED_EDGE('',*,*,#256,.F.);
#337=ORIENTED_EDGE('',*,*,#257,.T.);
#338=ORIENTED_EDGE('',*,*,#249,.F.);
#339=ORIENTED_EDGE('',*,*,#257,.F.);
#340=ORIENTED_EDGE('',*,*,#240,.T.);
#341=ORIENTED_EDGE('',*,*,#235,.T.);
#342=ORIENTED_EDGE('',*,*,#242,.F.);
#343=ORIENTED_EDGE('',*,*,#237,.F.);
#344=ORIENTED_EDGE('',*,*,#241,.T.);
#345=ORIENTED_EDGE('',*,*,#258,.T.);
#346=ORIENTED_EDGE('',*,*,#259,.F.);
#347=ORIENTED_EDGE('',*,*,#258,.F.);
#348=ORIENTED_EDGE('',*,*,#243,.T.);
#349=ORIENTED_EDGE('',*,*,#259,.T.);
#350=CYLINDRICAL_SURFACE('',#415,6.);
#351=CYLINDRICAL_SURFACE('',#423,2.);
#352=CYLINDRICAL_SURFACE('',#426,3.);
#353=CYLINDRICAL_SURFACE('',#430,3.);
#354=CYLINDRICAL_SURFACE('',#434,3.);
#355=CYLINDRICAL_SURFACE('',#439,25.);
#356=CYLINDRICAL_SURFACE('',#446,29.5);
#357=CYLINDRICAL_SURFACE('',#449,38.);
#358=CYLINDRICAL_SURFACE('',#457,29.5);
#359=CYLINDRICAL_SURFACE('',#459,38.);
#360=CYLINDRICAL_SURFACE('',#465,40.);
#361=CYLINDRICAL_SURFACE('',#466,17.5);
#362=CYLINDRICAL_SURFACE('',#467,22.5);
#363=ADVANCED_FACE('',(#50),#350,.T.);
#364=ADVANCED_FACE('',(#51,#22),#34,.T.);
#365=ADVANCED_FACE('',(#52,#23),#35,.T.);
#366=ADVANCED_FACE('',(#53),#36,.F.);
#367=ADVANCED_FACE('',(#54),#351,.F.);
#368=ADVANCED_FACE('',(#55),#37,.T.);
#369=ADVANCED_FACE('',(#56),#352,.F.);
#370=ADVANCED_FACE('',(#57),#38,.T.);
#371=ADVANCED_FACE('',(#58),#353,.F.);
#372=ADVANCED_FACE('',(#59),#39,.T.);
#373=ADVANCED_FACE('',(#60),#354,.F.);
#374=ADVANCED_FACE('',(#61),#40,.T.);
#375=ADVANCED_FACE('',(#62),#41,.T.);
#376=ADVANCED_FACE('',(#63),#355,.T.);
#377=ADVANCED_FACE('',(#64,#24,#25,#26),#42,.T.);
#378=ADVANCED_FACE('',(#65,#27),#43,.T.);
#379=ADVANCED_FACE('',(#66),#356,.T.);
#380=ADVANCED_FACE('',(#67),#357,.F.);
#381=ADVANCED_FACE('',(#68,#28),#44,.T.);
#382=ADVANCED_FACE('',(#69,#29),#45,.F.);
#383=ADVANCED_FACE('',(#70,#30),#46,.F.);
#384=ADVANCED_FACE('',(#71),#358,.T.);
#385=ADVANCED_FACE('',(#72),#359,.F.);
#386=ADVANCED_FACE('',(#73,#31),#47,.T.);
#387=ADVANCED_FACE('',(#74,#32),#48,.F.);
#388=ADVANCED_FACE('',(#75),#360,.T.);
#389=ADVANCED_FACE('',(#76),#361,.T.);
#390=ADVANCED_FACE('',(#77),#362,.T.);
#391=ADVANCED_FACE('',(#78,#33),#49,.F.);
#392=CLOSED_SHELL('',(#363,#364,#365,#366,#367,#368,#369,#370,#371,#372,
#373,#374,#375,#376,#377,#378,#379,#380,#381,#382,#383,#384,#385,#386,#387,
#388,#389,#390,#391));
#393=DERIVED_UNIT_ELEMENT(#396,1.);
#394=DERIVED_UNIT_ELEMENT(#719,-3.);
#395=DIMENSIONAL_EXPONENTS(0.,1.,0.,0.,0.,0.,0.);
#396=(
CONVERSION_BASED_UNIT('gram',#398)
MASS_UNIT()
NAMED_UNIT(#395)
);
#397=(
MASS_UNIT()
NAMED_UNIT(*)
SI_UNIT(.KILO.,.GRAM.)
);
#398=MASS_MEASURE_WITH_UNIT(MASS_MEASURE(0.001),#397);
#399=DERIVED_UNIT((#393,#394));
#400=MEASURE_REPRESENTATION_ITEM('density measure',
POSITIVE_RATIO_MEASURE(1.),#399);
#401=PROPERTY_DEFINITION_REPRESENTATION(#406,#403);
#402=PROPERTY_DEFINITION_REPRESENTATION(#407,#404);
#403=REPRESENTATION('material name',(#405),#716);
#404=REPRESENTATION('density',(#400),#716);
#405=DESCRIPTIVE_REPRESENTATION_ITEM('Generic','Generic');
#406=PROPERTY_DEFINITION('material property','material name',#726);
#407=PROPERTY_DEFINITION('material property','density of part',#726);
#408=DATE_TIME_ROLE('creation_date');
#409=APPLIED_DATE_AND_TIME_ASSIGNMENT(#410,#408,(#726));
#410=DATE_AND_TIME(#411,#412);
#411=CALENDAR_DATE(2023,21,1);
#412=LOCAL_TIME(13,37,30.,#413);
#413=COORDINATED_UNIVERSAL_TIME_OFFSET(0,0,.BEHIND.);
#414=AXIS2_PLACEMENT_3D('',#604,#471,#472);
#415=AXIS2_PLACEMENT_3D('',#605,#473,#474);
#416=AXIS2_PLACEMENT_3D('',#607,#475,#476);
#417=AXIS2_PLACEMENT_3D('',#610,#478,#479);
#418=AXIS2_PLACEMENT_3D('',#611,#480,#481);
#419=AXIS2_PLACEMENT_3D('',#615,#483,#484);
#420=AXIS2_PLACEMENT_3D('',#616,#485,#486);
#421=AXIS2_PLACEMENT_3D('',#618,#487,#488);
#422=AXIS2_PLACEMENT_3D('',#619,#489,#490);
#423=AXIS2_PLACEMENT_3D('',#625,#494,#495);
#424=AXIS2_PLACEMENT_3D('',#626,#496,#497);
#425=AXIS2_PLACEMENT_3D('',#627,#498,#499);
#426=AXIS2_PLACEMENT_3D('',#628,#500,#501);
#427=AXIS2_PLACEMENT_3D('',#630,#502,#503);
#428=AXIS2_PLACEMENT_3D('',#633,#505,#506);
#429=AXIS2_PLACEMENT_3D('',#634,#507,#508);
#430=AXIS2_PLACEMENT_3D('',#635,#509,#510);
#431=AXIS2_PLACEMENT_3D('',#637,#511,#512);
#432=AXIS2_PLACEMENT_3D('',#640,#514,#515);
#433=AXIS2_PLACEMENT_3D('',#641,#516,#517);
#434=AXIS2_PLACEMENT_3D('',#642,#518,#519);
#435=AXIS2_PLACEMENT_3D('',#644,#520,#521);
#436=AXIS2_PLACEMENT_3D('',#647,#523,#524);
#437=AXIS2_PLACEMENT_3D('',#648,#525,#526);
#438=AXIS2_PLACEMENT_3D('',#649,#527,#528);
#439=AXIS2_PLACEMENT_3D('',#658,#533,#534);
#440=AXIS2_PLACEMENT_3D('',#661,#536,#537);
#441=AXIS2_PLACEMENT_3D('',#662,#538,#539);
#442=AXIS2_PLACEMENT_3D('',#663,#540,#541);
#443=AXIS2_PLACEMENT_3D('',#664,#542,#543);
#444=AXIS2_PLACEMENT_3D('',#666,#544,#545);
#445=AXIS2_PLACEMENT_3D('',#667,#546,#547);
#446=AXIS2_PLACEMENT_3D('',#668,#548,#549);
#447=AXIS2_PLACEMENT_3D('',#670,#550,#551);
#448=AXIS2_PLACEMENT_3D('',#673,#553,#554);
#449=AXIS2_PLACEMENT_3D('',#674,#555,#556);
#450=AXIS2_PLACEMENT_3D('',#676,#557,#558);
#451=AXIS2_PLACEMENT_3D('',#679,#560,#561);
#452=AXIS2_PLACEMENT_3D('',#680,#562,#563);
#453=AXIS2_PLACEMENT_3D('',#681,#564,#565);
#454=AXIS2_PLACEMENT_3D('',#683,#566,#567);
#455=AXIS2_PLACEMENT_3D('',#684,#568,#569);
#456=AXIS2_PLACEMENT_3D('',#686,#570,#571);
#457=AXIS2_PLACEMENT_3D('',#687,#572,#573);
#458=AXIS2_PLACEMENT_3D('',#690,#575,#576);
#459=AXIS2_PLACEMENT_3D('',#691,#577,#578);
#460=AXIS2_PLACEMENT_3D('',#693,#579,#580);
#461=AXIS2_PLACEMENT_3D('',#696,#582,#583);
#462=AXIS2_PLACEMENT_3D('',#697,#584,#585);
#463=AXIS2_PLACEMENT_3D('',#698,#586,#587);
#464=AXIS2_PLACEMENT_3D('',#700,#588,#589);
#465=AXIS2_PLACEMENT_3D('',#701,#590,#591);
#466=AXIS2_PLACEMENT_3D('',#703,#593,#594);
#467=AXIS2_PLACEMENT_3D('',#704,#595,#596);
#468=AXIS2_PLACEMENT_3D('',#707,#598,#599);
#469=AXIS2_PLACEMENT_3D('',#708,#600,#601);
#470=AXIS2_PLACEMENT_3D('',#712,#602,#603);
#471=DIRECTION('axis',(0.,0.,1.));
#472=DIRECTION('refdir',(1.,0.,0.));
#473=DIRECTION('center_axis',(0.,-1.,0.));
#474=DIRECTION('ref_axis',(1.,0.,0.));
#475=DIRECTION('center_axis',(0.,-1.,0.));
#476=DIRECTION('ref_axis',(1.,0.,0.));
#477=DIRECTION('',(0.,1.,0.));
#478=DIRECTION('center_axis',(0.,1.,0.));
#479=DIRECTION('ref_axis',(1.,0.,0.));
#480=DIRECTION('center_axis',(0.,-1.,0.));
#481=DIRECTION('ref_axis',(0.,0.,-1.));
#482=DIRECTION('',(-0.412192059296657,0.,0.911096979609076));
#483=DIRECTION('center_axis',(0.,1.,0.));
#484=DIRECTION('ref_axis',(0.410683314383169,0.,0.911778051549419));
#485=DIRECTION('center_axis',(0.,-1.,0.));
#486=DIRECTION('ref_axis',(0.,0.,-1.));
#487=DIRECTION('center_axis',(0.,1.,0.));
#488=DIRECTION('ref_axis',(1.,0.,0.));
#489=DIRECTION('center_axis',(-0.911096979609076,0.,-0.412192059296657));
#490=DIRECTION('ref_axis',(-0.412192059296657,0.,0.911096979609076));
#491=DIRECTION('',(0.,1.,0.));
#492=DIRECTION('',(-0.412192059296657,0.,0.911096979609076));
#493=DIRECTION('',(0.,1.,0.));
#494=DIRECTION('center_axis',(0.,1.,0.));
#495=DIRECTION('ref_axis',(0.911096979609074,0.,0.412192059296661));
#496=DIRECTION('center_axis',(0.,1.,0.));
#497=DIRECTION('ref_axis',(-0.410683314383169,0.,-0.911778051549419));
#498=DIRECTION('center_axis',(0.,-1.,0.));
#499=DIRECTION('ref_axis',(0.,0.,-1.));
#500=DIRECTION('center_axis',(0.,-1.,0.));
#501=DIRECTION('ref_axis',(1.,0.,0.));
#502=DIRECTION('center_axis',(0.,-1.,0.));
#503=DIRECTION('ref_axis',(1.,0.,0.));
#504=DIRECTION('',(0.,-1.,0.));
#505=DIRECTION('center_axis',(0.,-1.,0.));
#506=DIRECTION('ref_axis',(1.,0.,0.));
#507=DIRECTION('center_axis',(0.,1.,0.));
#508=DIRECTION('ref_axis',(0.,0.,1.));
#509=DIRECTION('center_axis',(0.,-1.,0.));
#510=DIRECTION('ref_axis',(1.,0.,0.));
#511=DIRECTION('center_axis',(0.,-1.,0.));
#512=DIRECTION('ref_axis',(1.,0.,0.));
#513=DIRECTION('',(0.,-1.,0.));
#514=DIRECTION('center_axis',(0.,-1.,0.));
#515=DIRECTION('ref_axis',(1.,0.,0.));
#516=DIRECTION('center_axis',(0.,1.,0.));
#517=DIRECTION('ref_axis',(0.,0.,1.));
#518=DIRECTION('center_axis',(0.,-1.,0.));
#519=DIRECTION('ref_axis',(1.,0.,0.));
#520=DIRECTION('center_axis',(0.,-1.,0.));
#521=DIRECTION('ref_axis',(1.,0.,0.));
#522=DIRECTION('',(0.,-1.,0.));
#523=DIRECTION('center_axis',(0.,-1.,0.));
#524=DIRECTION('ref_axis',(1.,0.,0.));
#525=DIRECTION('center_axis',(0.,1.,0.));
#526=DIRECTION('ref_axis',(0.,0.,1.));
#527=DIRECTION('center_axis',(-1.,0.,1.81298660734736E-16));
#528=DIRECTION('ref_axis',(-1.81298660734736E-16,0.,-1.));
#529=DIRECTION('',(-1.81298660734736E-16,0.,-1.));
#530=DIRECTION('',(0.,-1.,0.));
#531=DIRECTION('',(1.81298660734736E-16,0.,1.));
#532=DIRECTION('',(0.,-1.,0.));
#533=DIRECTION('center_axis',(0.,-1.,0.));
#534=DIRECTION('ref_axis',(1.,0.,0.));
#535=DIRECTION('',(0.,1.,0.));
#536=DIRECTION('center_axis',(0.,1.,0.));
#537=DIRECTION('ref_axis',(1.,0.,0.));
#538=DIRECTION('center_axis',(0.,1.,0.));
#539=DIRECTION('ref_axis',(0.,0.,1.));
#540=DIRECTION('center_axis',(0.,-1.,0.));
#541=DIRECTION('ref_axis',(1.,0.,0.));
#542=DIRECTION('center_axis',(0.,1.,0.));
#543=DIRECTION('ref_axis',(0.,0.,1.));
#544=DIRECTION('center_axis',(0.,-1.,0.));
#545=DIRECTION('ref_axis',(1.,0.,0.));
#546=DIRECTION('center_axis',(0.,-1.,0.));
#547=DIRECTION('ref_axis',(-0.571428571428571,0.,0.82065180664829));
#548=DIRECTION('center_axis',(0.,-1.,0.));
#549=DIRECTION('ref_axis',(-1.,0.,0.));
#550=DIRECTION('center_axis',(0.,1.,0.));
#551=DIRECTION('ref_axis',(-1.,0.,0.));
#552=DIRECTION('',(0.,-1.,0.));
#553=DIRECTION('center_axis',(0.,1.,0.));
#554=DIRECTION('ref_axis',(-1.,0.,0.));
#555=DIRECTION('center_axis',(0.,-1.,0.));
#556=DIRECTION('ref_axis',(1.,0.,0.));
#557=DIRECTION('center_axis',(0.,-1.,0.));
#558=DIRECTION('ref_axis',(1.,0.,0.));
#559=DIRECTION('',(0.,-1.,0.));
#560=DIRECTION('center_axis',(0.,-1.,0.));
#561=DIRECTION('ref_axis',(1.,0.,0.));
#562=DIRECTION('center_axis',(0.,1.,0.));
#563=DIRECTION('ref_axis',(0.,0.,1.));
#564=DIRECTION('center_axis',(0.,-1.,0.));
#565=DIRECTION('ref_axis',(0.,0.,-1.));
#566=DIRECTION('center_axis',(0.,1.,0.));
#567=DIRECTION('ref_axis',(1.,0.,0.));
#568=DIRECTION('center_axis',(0.,1.,0.));
#569=DIRECTION('ref_axis',(0.,0.,1.));
#570=DIRECTION('center_axis',(0.,-1.,0.));
#571=DIRECTION('ref_axis',(-1.,0.,0.));
#572=DIRECTION('center_axis',(0.,1.,0.));
#573=DIRECTION('ref_axis',(-1.,0.,0.));
#574=DIRECTION('',(0.,1.,0.));
#575=DIRECTION('center_axis',(0.,-1.,0.));
#576=DIRECTION('ref_axis',(-1.,0.,0.));
#577=DIRECTION('center_axis',(0.,1.,0.));
#578=DIRECTION('ref_axis',(1.,0.,0.));
#579=DIRECTION('center_axis',(0.,1.,0.));
#580=DIRECTION('ref_axis',(1.,0.,0.));
#581=DIRECTION('',(0.,1.,0.));
#582=DIRECTION('center_axis',(0.,1.,0.));
#583=DIRECTION('ref_axis',(1.,0.,0.));
#584=DIRECTION('center_axis',(0.,-1.,0.));
#585=DIRECTION('ref_axis',(0.,0.,-1.));
#586=DIRECTION('center_axis',(0.,1.,0.));
#587=DIRECTION('ref_axis',(0.,0.,1.));
#588=DIRECTION('center_axis',(0.,-1.,0.));
#589=DIRECTION('ref_axis',(1.,0.,0.));
#590=DIRECTION('center_axis',(0.,-1.,0.));
#591=DIRECTION('ref_axis',(1.,0.,0.));
#592=DIRECTION('',(0.,1.,0.));
#593=DIRECTION('center_axis',(0.,1.,0.));
#594=DIRECTION('ref_axis',(1.,0.,0.));
#595=DIRECTION('center_axis',(0.,1.,0.));
#596=DIRECTION('ref_axis',(1.,0.,0.));
#597=DIRECTION('',(0.,-1.,0.));
#598=DIRECTION('center_axis',(0.,-1.,0.));
#599=DIRECTION('ref_axis',(1.,0.,0.));
#600=DIRECTION('center_axis',(0.,-1.,0.));
#601=DIRECTION('ref_axis',(0.,0.,-1.));
#602=DIRECTION('center_axis',(0.,1.,0.));
#603=DIRECTION('ref_axis',(1.,0.,0.));
#604=CARTESIAN_POINT('',(0.,0.,0.));
#605=CARTESIAN_POINT('Origin',(0.,-26.,0.));
#606=CARTESIAN_POINT('',(-6.,-31.,-7.34788079488412E-16));
#607=CARTESIAN_POINT('Origin',(0.,-31.,0.));
#608=CARTESIAN_POINT('',(-6.,-26.,-7.34788079488412E-16));
#609=CARTESIAN_POINT('',(-6.,-26.,-7.34788079488412E-16));
#610=CARTESIAN_POINT('Origin',(0.,-26.,0.));
#611=CARTESIAN_POINT('Origin',(0.,-31.,0.));
#612=CARTESIAN_POINT('',(-0.821366628766198,-31.,-1.82355610309899));
#613=CARTESIAN_POINT('',(-1.91192431006074,-31.,0.586979925208709));
#614=CARTESIAN_POINT('',(-0.821366628766198,-31.,-1.82355610309899));
#615=CARTESIAN_POINT('Origin',(1.4210854715202E-13,-31.,-1.4210854715202E-13));
#616=CARTESIAN_POINT('Origin',(0.,-26.,0.));
#617=CARTESIAN_POINT('',(-25.,-26.,-3.06161699786838E-15));
#618=CARTESIAN_POINT('Origin',(0.,-26.,0.));
#619=CARTESIAN_POINT('Origin',(-0.821366628766198,-29.,-1.82355610309899));
#620=CARTESIAN_POINT('',(-0.821366628766198,-19.,-1.82355610309899));
#621=CARTESIAN_POINT('',(-0.821366628766198,-29.,-1.82355610309899));
#622=CARTESIAN_POINT('',(-1.91192431006074,-19.,0.586979925208709));
#623=CARTESIAN_POINT('',(-1.91192431006074,-19.,0.586979925208709));
#624=CARTESIAN_POINT('',(-1.91192431006074,-29.,0.586979925208709));
#625=CARTESIAN_POINT('Origin',(1.4210854715202E-13,-29.,-1.4210854715202E-13));
#626=CARTESIAN_POINT('Origin',(1.4210854715202E-13,-19.,-1.4210854715202E-13));
#627=CARTESIAN_POINT('Origin',(0.0440378449696974,-19.,-1.4210854715202E-13));
#628=CARTESIAN_POINT('Origin',(0.,35.,7.));
#629=CARTESIAN_POINT('',(-3.,35.,7.));
#630=CARTESIAN_POINT('Origin',(0.,35.,7.));
#631=CARTESIAN_POINT('',(-3.,23.,7.));
#632=CARTESIAN_POINT('',(-3.,35.,7.));
#633=CARTESIAN_POINT('Origin',(0.,23.,7.));
#634=CARTESIAN_POINT('Origin',(0.,23.,7.));
#635=CARTESIAN_POINT('Origin',(6.06217782649107,35.,-3.5));
#636=CARTESIAN_POINT('',(3.06217782649107,35.,-3.5));
#637=CARTESIAN_POINT('Origin',(6.06217782649107,35.,-3.5));
#638=CARTESIAN_POINT('',(3.06217782649107,23.,-3.5));
#639=CARTESIAN_POINT('',(3.06217782649107,35.,-3.5));
#640=CARTESIAN_POINT('Origin',(6.06217782649107,23.,-3.5));
#641=CARTESIAN_POINT('Origin',(6.06217782649107,23.,-3.5));
#642=CARTESIAN_POINT('Origin',(-6.06217782649107,35.,-3.5));
#643=CARTESIAN_POINT('',(-9.06217782649107,35.,-3.5));
#644=CARTESIAN_POINT('Origin',(-6.06217782649107,35.,-3.5));
#645=CARTESIAN_POINT('',(-9.06217782649107,23.,-3.5));
#646=CARTESIAN_POINT('',(-9.06217782649107,35.,-3.5));
#647=CARTESIAN_POINT('Origin',(-6.06217782649107,23.,-3.5));
#648=CARTESIAN_POINT('Origin',(-6.06217782649107,23.,-3.5));
#649=CARTESIAN_POINT('Origin',(-12.5,35.,12.2474487139159));
#650=CARTESIAN_POINT('',(-12.5,20.,12.2474487139159));
#651=CARTESIAN_POINT('',(-12.5,20.,-12.2474487139159));
#652=CARTESIAN_POINT('',(-12.5,20.,6.12372435695795));
#653=CARTESIAN_POINT('',(-12.5,35.,12.2474487139159));
#654=CARTESIAN_POINT('',(-12.5,35.,12.2474487139159));
#655=CARTESIAN_POINT('',(-12.5,35.,-12.2474487139159));
#656=CARTESIAN_POINT('',(-12.5,35.,-12.2474487139159));
#657=CARTESIAN_POINT('',(-12.5,35.,-12.2474487139159));
#658=CARTESIAN_POINT('Origin',(0.,-20.,0.));
#659=CARTESIAN_POINT('',(-25.,-20.,-3.06161699786838E-15));
#660=CARTESIAN_POINT('',(-25.,-20.,-3.06161699786838E-15));
#661=CARTESIAN_POINT('Origin',(0.,-20.,0.));
#662=CARTESIAN_POINT('Origin',(3.75,35.,0.));
#663=CARTESIAN_POINT('Origin',(0.,35.,0.));
#664=CARTESIAN_POINT('Origin',(0.,20.,0.));
#665=CARTESIAN_POINT('',(-22.5,20.,2.75545529808154E-15));
#666=CARTESIAN_POINT('Origin',(0.,20.,0.));
#667=CARTESIAN_POINT('Origin',(0.,20.,0.));
#668=CARTESIAN_POINT('Origin',(0.,0.,0.));
#669=CARTESIAN_POINT('',(29.5,0.,-3.61270805748469E-15));
#670=CARTESIAN_POINT('Origin',(0.,0.,0.));
#671=CARTESIAN_POINT('',(29.5,-3.,-3.61270805748469E-15));
#672=CARTESIAN_POINT('',(29.5,0.,3.61270805748469E-15));
#673=CARTESIAN_POINT('Origin',(0.,-3.,0.));
#674=CARTESIAN_POINT('Origin',(0.,0.,0.));
#675=CARTESIAN_POINT('',(-38.,0.,-4.65365783675994E-15));
#676=CARTESIAN_POINT('Origin',(0.,0.,0.));
#677=CARTESIAN_POINT('',(-38.,-3.,-4.65365783675994E-15));
#678=CARTESIAN_POINT('',(-38.,0.,-4.65365783675994E-15));
#679=CARTESIAN_POINT('Origin',(0.,-3.,0.));
#680=CARTESIAN_POINT('Origin',(0.,-3.,0.));
#681=CARTESIAN_POINT('Origin',(0.,0.,0.));
#682=CARTESIAN_POINT('',(-40.,0.,-4.89858719658941E-15));
#683=CARTESIAN_POINT('Origin',(0.,0.,0.));
#684=CARTESIAN_POINT('Origin',(0.,-20.,0.));
#685=CARTESIAN_POINT('',(29.5,-20.,3.61270805748469E-15));
#686=CARTESIAN_POINT('Origin',(0.,-20.,0.));
#687=CARTESIAN_POINT('Origin',(0.,-20.,0.));
#688=CARTESIAN_POINT('',(29.5,-17.,3.61270805748469E-15));
#689=CARTESIAN_POINT('',(29.5,-20.,-3.61270805748469E-15));
#690=CARTESIAN_POINT('Origin',(0.,-17.,0.));
#691=CARTESIAN_POINT('Origin',(0.,-20.,0.));
#692=CARTESIAN_POINT('',(-38.,-20.,4.65365783675994E-15));
#693=CARTESIAN_POINT('Origin',(0.,-20.,0.));
#694=CARTESIAN_POINT('',(-38.,-17.,4.65365783675994E-15));
#695=CARTESIAN_POINT('',(-38.,-20.,4.65365783675994E-15));
#696=CARTESIAN_POINT('Origin',(0.,-17.,0.));
#697=CARTESIAN_POINT('Origin',(0.,-17.,0.));
#698=CARTESIAN_POINT('Origin',(0.,-20.,0.));
#699=CARTESIAN_POINT('',(-40.,-20.,-4.89858719658941E-15));
#700=CARTESIAN_POINT('Origin',(0.,-20.,0.));
#701=CARTESIAN_POINT('Origin',(0.,0.,0.));
#702=CARTESIAN_POINT('',(-40.,0.,-4.89858719658941E-15));
#703=CARTESIAN_POINT('Origin',(0.,30.,0.));
#704=CARTESIAN_POINT('Origin',(0.,0.,0.));
#705=CARTESIAN_POINT('',(-22.5,0.,2.75545529808154E-15));
#706=CARTESIAN_POINT('',(-22.5,0.,2.75545529808154E-15));
#707=CARTESIAN_POINT('Origin',(0.,0.,0.));
#708=CARTESIAN_POINT('Origin',(0.,0.,0.));
#709=CARTESIAN_POINT('',(0.,-16.4,0.));
#710=CARTESIAN_POINT('',(0.,65.,0.));
#711=CARTESIAN_POINT('',(0.,30.,0.));
#712=CARTESIAN_POINT('Origin',(0.,0.,0.));
#713=CARTESIAN_POINT('',(0.,0.,0.));
#714=UNCERTAINTY_MEASURE_WITH_UNIT(LENGTH_MEASURE(0.01),#718,
'DISTANCE_ACCURACY_VALUE',
'Maximum model space distance between geometric entities at asserted c
onnectivities');
#715=UNCERTAINTY_MEASURE_WITH_UNIT(LENGTH_MEASURE(0.01),#718,
'DISTANCE_ACCURACY_VALUE',
'Maximum model space distance between geometric entities at asserted c
onnectivities');
#716=(
GEOMETRIC_REPRESENTATION_CONTEXT(3)
GLOBAL_UNCERTAINTY_ASSIGNED_CONTEXT((#714))
GLOBAL_UNIT_ASSIGNED_CONTEXT((#718,#720,#721))
REPRESENTATION_CONTEXT('','3D')
);
#717=(
GEOMETRIC_REPRESENTATION_CONTEXT(3)
GLOBAL_UNCERTAINTY_ASSIGNED_CONTEXT((#715))
GLOBAL_UNIT_ASSIGNED_CONTEXT((#718,#720,#721))
REPRESENTATION_CONTEXT('','3D')
);
#718=(
LENGTH_UNIT()
NAMED_UNIT(*)
SI_UNIT(.MILLI.,.METRE.)
);
#719=(
LENGTH_UNIT()
NAMED_UNIT(*)
SI_UNIT(.CENTI.,.METRE.)
);
#720=(
NAMED_UNIT(*)
PLANE_ANGLE_UNIT()
SI_UNIT($,.RADIAN.)
);
#721=(
NAMED_UNIT(*)
SI_UNIT($,.STERADIAN.)
SOLID_ANGLE_UNIT()
);
#722=SHAPE_DEFINITION_REPRESENTATION(#723,#724);
#723=PRODUCT_DEFINITION_SHAPE('',$,#726);
#724=SHAPE_REPRESENTATION('',(#414),#716);
#725=PRODUCT_DEFINITION_CONTEXT('part definition',#730,'design');
#726=PRODUCT_DEFINITION('SHAFT','SHAFT',#727,#725);
#727=PRODUCT_DEFINITION_FORMATION('',$,#732);
#728=PRODUCT_RELATED_PRODUCT_CATEGORY('SHAFT','SHAFT',(#732));
#729=APPLICATION_PROTOCOL_DEFINITION('international standard',
'automotive_design',2009,#730);
#730=APPLICATION_CONTEXT(
'Core Data for Automotive Mechanical Design Process');
#731=PRODUCT_CONTEXT('part definition',#730,'mechanical');
#732=PRODUCT('SHAFT','SHAFT',$,(#731));
#733=PRESENTATION_STYLE_ASSIGNMENT((#736));
#734=PRESENTATION_STYLE_ASSIGNMENT((#737));
#735=PRESENTATION_STYLE_ASSIGNMENT((#738));
#736=SURFACE_STYLE_USAGE(.BOTH.,#743);
#737=SURFACE_STYLE_USAGE(.BOTH.,#744);
#738=SURFACE_STYLE_USAGE(.BOTH.,#745);
#739=SURFACE_STYLE_RENDERING_WITH_PROPERTIES($,#755,(#741));
#740=SURFACE_STYLE_RENDERING_WITH_PROPERTIES($,#756,(#742));
#741=SURFACE_STYLE_TRANSPARENT(0.);
#742=SURFACE_STYLE_TRANSPARENT(0.);
#743=SURFACE_SIDE_STYLE('',(#746,#739));
#744=SURFACE_SIDE_STYLE('',(#747,#740));
#745=SURFACE_SIDE_STYLE('',(#748));
#746=SURFACE_STYLE_FILL_AREA(#749);
#747=SURFACE_STYLE_FILL_AREA(#750);
#748=SURFACE_STYLE_FILL_AREA(#751);
#749=FILL_AREA_STYLE('',(#752));
#750=FILL_AREA_STYLE('',(#753));
#751=FILL_AREA_STYLE('',(#754));
#752=FILL_AREA_STYLE_COLOUR('',#755);
#753=FILL_AREA_STYLE_COLOUR('',#756);
#754=FILL_AREA_STYLE_COLOUR('',#757);
#755=COLOUR_RGB('',0.792156862745098,0.819607843137255,0.933333333333333);
#756=COLOUR_RGB('',0.776470588235294,0.756862745098039,0.737254901960784);
#757=COLOUR_RGB('',1.,1.,0.);
ENDSEC;
END-ISO-10303-21;
