ISO-10303-21;
HEADER;
FILE_DESCRIPTION (( 'STEP AP203' ),
    '1' );
FILE_NAME ('Part9_Default_sldprt.STEP',
    '2025-04-07T11:13:15',
    ( '' ),
    ( '' ),
    'SwSTEP 2.0',
    'SolidWorks 2023',
    '' );
FILE_SCHEMA (( 'CONFIG_CONTROL_DESIGN' ));
ENDSEC;

DATA;
#1 = LOCAL_TIME ( 13, 13, 15.00000000000000000, #90 ) ;
#2 = CARTESIAN_POINT ( 'NONE',  ( 0.000000000000000000, -30.00000000000000000, 0.000000000000000000 ) ) ;
#3 = CARTESIAN_POINT ( 'NONE',  ( 0.000000000000000000, 5.000000000000000000, 0.000000000000000000 ) ) ;
#4 = SECURITY_CLASSIFICATION ( '', '', #210 ) ;
#5 = FACE_OUTER_BOUND ( 'NONE', #57, .T. ) ;
#6 = EDGE_CURVE ( 'NONE', #194, #75, #162, .T. ) ;
#7 = CARTESIAN_POINT ( 'NONE',  ( 0.000000000000000000, -30.00000000000000000, 0.000000000000000000 ) ) ;
#8 = DIRECTION ( 'NONE',  ( -0.000000000000000000, -1.000000000000000000, -0.000000000000000000 ) ) ;
#9 = PERSON_AND_ORGANIZATION ( #92, #153 ) ;
#10 = AXIS2_PLACEMENT_3D ( 'NONE', #181, #8, #216 ) ;
#11 =( NAMED_UNIT ( * ) PLANE_ANGLE_UNIT ( ) SI_UNIT ( $, .RADIAN. ) );
#12 = VECTOR ( 'NONE', #52, 1000.000000000000000 ) ;
#13 = APPLICATION_PROTOCOL_DEFINITION ( 'international standard', 'config_control_design', 1994, #151 ) ;
#14 = ADVANCED_FACE ( 'NONE', ( #237 ), #42, .T. ) ;
#15 = APPROVAL_DATE_TIME ( #245, #99 ) ;
#16 = APPROVAL_DATE_TIME ( #209, #147 ) ;
#17 = VERTEX_POINT ( 'NONE', #202 ) ;
#18 = AXIS2_PLACEMENT_3D ( 'NONE', #24, #140, #121 ) ;
#19 = ORIENTED_EDGE ( 'NONE', *, *, #139, .T. ) ;
#20 = PRODUCT ( 'Part9_Default_sldprt', 'Part9_Default_sldprt', '', ( #227 ) ) ;
#21 = AXIS2_PLACEMENT_3D ( 'NONE', #63, #199, #26 ) ;
#22 = ORIENTED_EDGE ( 'NONE', *, *, #250, .T. ) ;
#23 = APPROVAL_PERSON_ORGANIZATION ( #9, #211, #243 ) ;
#24 = CARTESIAN_POINT ( 'NONE',  ( 0.000000000000000000, 5.000000000000000000, 0.000000000000000000 ) ) ;
#25 = EDGE_CURVE ( 'NONE', #100, #101, #104, .T. ) ;
#26 = DIRECTION ( 'NONE',  ( 0.000000000000000000, -0.000000000000000000, 1.000000000000000000 ) ) ;
#27 = CARTESIAN_POINT ( 'NONE',  ( 1.285879139104721028E-15, 10.00000000000000000, 10.50000000000000178 ) ) ;
#28 = DIRECTION ( 'NONE',  ( 0.000000000000000000, 0.000000000000000000, 1.000000000000000000 ) ) ;
#29 = DIRECTION ( 'NONE',  ( 0.000000000000000000, 1.000000000000000000, 0.000000000000000000 ) ) ;
#30 = CIRCLE ( 'NONE', #196, 10.50000000000000178 ) ;
#31 = CC_DESIGN_DATE_AND_TIME_ASSIGNMENT ( #112, #130, ( #4 ) ) ;
#32 = ADVANCED_BREP_SHAPE_REPRESENTATION ( 'Part9_Default_sldprt', ( #238, #35 ), #223 ) ;
#33 = FACE_OUTER_BOUND ( 'NONE', #192, .T. ) ;
#34 = DATE_TIME_ROLE ( 'creation_date' ) ;
#35 = AXIS2_PLACEMENT_3D ( 'NONE', #111, #169, #165 ) ;
#36 = ORIENTED_EDGE ( 'NONE', *, *, #203, .F. ) ;
#37 = UNCERTAINTY_MEASURE_WITH_UNIT (LENGTH_MEASURE( 1.000000000000000082E-05 ), #228, 'distance_accuracy_value', 'NONE');
#38 = ORIENTED_EDGE ( 'NONE', *, *, #76, .T. ) ;
#39 = APPLICATION_CONTEXT ( 'configuration controlled 3d designs of mechanical parts and assemblies' ) ;
#40 = PRODUCT_DEFINITION_SHAPE ( 'NONE', 'NONE',  #187 ) ;
#41 = EDGE_LOOP ( 'NONE', ( #38, #22 ) ) ;
#42 = PLANE ( 'NONE',  #21 ) ;
#43 = EDGE_CURVE ( 'NONE', #214, #77, #149, .T. ) ;
#44 = AXIS2_PLACEMENT_3D ( 'NONE', #143, #186, #128 ) ;
#45 = CARTESIAN_POINT ( 'NONE',  ( 0.000000000000000000, 5.000000000000000000, 0.000000000000000000 ) ) ;
#46 = DIRECTION ( 'NONE',  ( 0.000000000000000000, 0.000000000000000000, -1.000000000000000000 ) ) ;
#47 = PLANE ( 'NONE',  #171 ) ;
#48 = CARTESIAN_POINT ( 'NONE',  ( 0.000000000000000000, 10.00000000000000000, 0.000000000000000000 ) ) ;
#49 = CARTESIAN_POINT ( 'NONE',  ( 0.000000000000000000, 5.000000000000000000, 0.000000000000000000 ) ) ;
#50 = DIRECTION ( 'NONE',  ( 0.000000000000000000, 1.000000000000000000, 0.000000000000000000 ) ) ;
#51 = CC_DESIGN_DATE_AND_TIME_ASSIGNMENT ( #207, #34, ( #187 ) ) ;
#52 = DIRECTION ( 'NONE',  ( -0.000000000000000000, -1.000000000000000000, -0.000000000000000000 ) ) ;
#53 = COORDINATED_UNIVERSAL_TIME_OFFSET ( 2, 0, .AHEAD. ) ;
#54 = AXIS2_PLACEMENT_3D ( 'NONE', #66, #161, #241 ) ;
#55 = DATE_AND_TIME ( #150, #164 ) ;
#56 = APPROVAL_PERSON_ORGANIZATION ( #168, #99, #145 ) ;
#57 = EDGE_LOOP ( 'NONE', ( #156, #36, #212, #253 ) ) ;
#58 = ORIENTED_EDGE ( 'NONE', *, *, #89, .T. ) ;
#59 = ADVANCED_FACE ( 'NONE', ( #5 ), #138, .T. ) ;
#60 = CC_DESIGN_SECURITY_CLASSIFICATION ( #4, ( #197 ) ) ;
#61 = DIRECTION ( 'NONE',  ( -0.000000000000000000, -1.000000000000000000, -0.000000000000000000 ) ) ;
#62 = AXIS2_PLACEMENT_3D ( 'NONE', #3, #61, #46 ) ;
#63 = CARTESIAN_POINT ( 'NONE',  ( 0.000000000000000000, 10.00000000000000000, 0.000000000000000000 ) ) ;
#64 = FACE_OUTER_BOUND ( 'NONE', #115, .T. ) ;
#65 = DESIGN_CONTEXT ( 'detailed design', #39, 'design' ) ;
#66 = CARTESIAN_POINT ( 'NONE',  ( 0.000000000000000000, -30.00000000000000000, 0.000000000000000000 ) ) ;
#67 = DIRECTION ( 'NONE',  ( 0.000000000000000000, 1.000000000000000000, 0.000000000000000000 ) ) ;
#68 = CARTESIAN_POINT ( 'NONE',  ( 7.347880794884118356E-15, 5.000000000000000000, 60.00000000000000000 ) ) ;
#69 = PERSON_AND_ORGANIZATION ( #92, #153 ) ;
#70 = ADVANCED_FACE ( 'NONE', ( #178 ), #47, .F. ) ;
#71 = DIRECTION ( 'NONE',  ( 0.000000000000000000, 0.000000000000000000, 1.000000000000000000 ) ) ;
#72 = PERSON_AND_ORGANIZATION_ROLE ( 'creator' ) ;
#73 = CIRCLE ( 'NONE', #215, 60.00000000000000000 ) ;
#74 = PERSON_AND_ORGANIZATION ( #92, #153 ) ;
#75 = VERTEX_POINT ( 'NONE', #198 ) ;
#76 = EDGE_CURVE ( 'NONE', #131, #17, #96, .T. ) ;
#77 = VERTEX_POINT ( 'NONE', #160 ) ;
#78 = ORIENTED_EDGE ( 'NONE', *, *, #177, .F. ) ;
#79 = AXIS2_PLACEMENT_3D ( 'NONE', #94, #225, #124 ) ;
#80 = DIRECTION ( 'NONE',  ( -0.000000000000000000, -1.000000000000000000, -0.000000000000000000 ) ) ;
#81 = ORIENTED_EDGE ( 'NONE', *, *, #6, .F. ) ;
#82 = DIRECTION ( 'NONE',  ( 0.000000000000000000, -0.000000000000000000, 1.000000000000000000 ) ) ;
#83 = LINE ( 'NONE', #201, #137 ) ;
#84 = DIRECTION ( 'NONE',  ( 0.000000000000000000, 0.000000000000000000, -1.000000000000000000 ) ) ;
#85 = CIRCLE ( 'NONE', #18, 10.50000000000000178 ) ;
#86 = APPROVAL_STATUS ( 'not_yet_approved' ) ;
#87 = CC_DESIGN_APPROVAL ( #99, ( #187 ) ) ;
#88 = PERSON_AND_ORGANIZATION ( #92, #153 ) ;
#89 = EDGE_CURVE ( 'NONE', #75, #101, #30, .T. ) ;
#90 = COORDINATED_UNIVERSAL_TIME_OFFSET ( 2, 0, .AHEAD. ) ;
#91 = PERSON_AND_ORGANIZATION_ROLE ( 'design_owner' ) ;
#92 = PERSON ( 'UNSPECIFIED', 'UNSPECIFIED', 'UNSPECIFIED', ('UNSPECIFIED'), ('UNSPECIFIED'), ('UNSPECIFIED') ) ;
#93 = LOCAL_TIME ( 13, 13, 15.00000000000000000, #174 ) ;
#94 = CARTESIAN_POINT ( 'NONE',  ( 0.000000000000000000, 5.000000000000000000, 0.000000000000000000 ) ) ;
#95 = CALENDAR_DATE ( 2025, 7, 4 ) ;
#96 = CIRCLE ( 'NONE', #236, 60.00000000000000000 ) ;
#97 = ORIENTED_EDGE ( 'NONE', *, *, #240, .T. ) ;
#98 = PERSON_AND_ORGANIZATION_ROLE ( 'classification_officer' ) ;
#99 = APPROVAL ( #206, 'UNSPECIFIED' ) ;
#100 = VERTEX_POINT ( 'NONE', #27 ) ;
#101 = VERTEX_POINT ( 'NONE', #122 ) ;
#102 = AXIS2_PLACEMENT_3D ( 'NONE', #49, #50, #204 ) ;
#103 = DIRECTION ( 'NONE',  ( 0.000000000000000000, 0.000000000000000000, 1.000000000000000000 ) ) ;
#104 = LINE ( 'NONE', #218, #163 ) ;
#105 = EDGE_CURVE ( 'NONE', #101, #75, #85, .T. ) ;
#106 = CYLINDRICAL_SURFACE ( 'NONE', #116, 10.50000000000000178 ) ;
#107 = PRODUCT_RELATED_PRODUCT_CATEGORY ( 'detail', '', ( #20 ) ) ;
#108 = CARTESIAN_POINT ( 'NONE',  ( 0.000000000000000000, 10.00000000000000000, -10.50000000000000178 ) ) ;
#109 = DIRECTION ( 'NONE',  ( -0.000000000000000000, -1.000000000000000000, -0.000000000000000000 ) ) ;
#110 = CLOSED_SHELL ( 'NONE', ( #127, #220, #114, #254, #59, #14, #70 ) ) ;
#111 = CARTESIAN_POINT ( 'NONE',  ( 0.000000000000000000, 0.000000000000000000, 0.000000000000000000 ) ) ;
#112 = DATE_AND_TIME ( #95, #146 ) ;
#113 = COORDINATED_UNIVERSAL_TIME_OFFSET ( 2, 0, .AHEAD. ) ;
#114 = ADVANCED_FACE ( 'NONE', ( #64 ), #219, .T. ) ;
#115 = EDGE_LOOP ( 'NONE', ( #173, #135, #175, #176 ) ) ;
#116 = AXIS2_PLACEMENT_3D ( 'NONE', #136, #180, #84 ) ;
#117 = DIRECTION ( 'NONE',  ( 0.000000000000000000, 1.000000000000000000, 0.000000000000000000 ) ) ;
#118 = CC_DESIGN_APPROVAL ( #211, ( #197 ) ) ;
#119 = DIRECTION ( 'NONE',  ( 0.000000000000000000, 0.000000000000000000, 1.000000000000000000 ) ) ;
#120 = CC_DESIGN_PERSON_AND_ORGANIZATION_ASSIGNMENT ( #170, #98, ( #4 ) ) ;
#121 = DIRECTION ( 'NONE',  ( 0.000000000000000000, 0.000000000000000000, 1.000000000000000000 ) ) ;
#122 = CARTESIAN_POINT ( 'NONE',  ( 1.285879139104721028E-15, 5.000000000000000000, 10.50000000000000178 ) ) ;
#123 = ORIENTED_EDGE ( 'NONE', *, *, #25, .T. ) ;
#124 = DIRECTION ( 'NONE',  ( 0.000000000000000000, 0.000000000000000000, 1.000000000000000000 ) ) ;
#125 = CIRCLE ( 'NONE', #208, 10.50000000000000178 ) ;
#126 = FACE_OUTER_BOUND ( 'NONE', #41, .T. ) ;
#127 = ADVANCED_FACE ( 'NONE', ( #200 ), #106, .T. ) ;
#128 = DIRECTION ( 'NONE',  ( 0.000000000000000000, 0.000000000000000000, -1.000000000000000000 ) ) ;
#129 = CALENDAR_DATE ( 2025, 7, 4 ) ;
#130 = DATE_TIME_ROLE ( 'classification_date' ) ;
#131 = VERTEX_POINT ( 'NONE', #221 ) ;
#132 = CC_DESIGN_PERSON_AND_ORGANIZATION_ASSIGNMENT ( #69, #72, ( #187 ) ) ;
#133 = EDGE_LOOP ( 'NONE', ( #252, #155 ) ) ;
#134 = ORIENTED_EDGE ( 'NONE', *, *, #250, .F. ) ;
#135 = ORIENTED_EDGE ( 'NONE', *, *, #76, .F. ) ;
#136 = CARTESIAN_POINT ( 'NONE',  ( 0.000000000000000000, 10.00000000000000000, 0.000000000000000000 ) ) ;
#137 = VECTOR ( 'NONE', #80, 1000.000000000000000 ) ;
#138 = CYLINDRICAL_SURFACE ( 'NONE', #10, 10.50000000000000178 ) ;
#139 = EDGE_CURVE ( 'NONE', #77, #214, #73, .T. ) ;
#140 = DIRECTION ( 'NONE',  ( -0.000000000000000000, -1.000000000000000000, -0.000000000000000000 ) ) ;
#141 = DIRECTION ( 'NONE',  ( 0.000000000000000000, 0.000000000000000000, 1.000000000000000000 ) ) ;
#142 = ORIENTED_EDGE ( 'NONE', *, *, #105, .T. ) ;
#143 = CARTESIAN_POINT ( 'NONE',  ( 0.000000000000000000, 5.000000000000000000, 0.000000000000000000 ) ) ;
#144 = DIRECTION ( 'NONE',  ( 0.000000000000000000, 1.000000000000000000, 0.000000000000000000 ) ) ;
#145 = APPROVAL_ROLE ( '' ) ;
#146 = LOCAL_TIME ( 13, 13, 15.00000000000000000, #113 ) ;
#147 = APPROVAL ( #191, 'UNSPECIFIED' ) ;
#148 = PLANE ( 'NONE',  #102 ) ;
#149 = CIRCLE ( 'NONE', #54, 60.00000000000000000 ) ;
#150 = CALENDAR_DATE ( 2025, 7, 4 ) ;
#151 = APPLICATION_CONTEXT ( 'configuration controlled 3d designs of mechanical parts and assemblies' ) ;
#152 = PERSON_AND_ORGANIZATION ( #92, #153 ) ;
#153 = ORGANIZATION ( 'UNSPECIFIED', 'UNSPECIFIED', '' ) ;
#154 = EDGE_LOOP ( 'NONE', ( #255, #97 ) ) ;
#155 = ORIENTED_EDGE ( 'NONE', *, *, #139, .F. ) ;
#156 = ORIENTED_EDGE ( 'NONE', *, *, #25, .F. ) ;
#157 = DIRECTION ( 'NONE',  ( 0.000000000000000000, 1.000000000000000000, 0.000000000000000000 ) ) ;
#158 = ORIENTED_EDGE ( 'NONE', *, *, #232, .T. ) ;
#159 = CC_DESIGN_PERSON_AND_ORGANIZATION_ASSIGNMENT ( #74, #248, ( #197 ) ) ;
#160 = CARTESIAN_POINT ( 'NONE',  ( 7.347880794884118356E-15, -30.00000000000000000, 60.00000000000000000 ) ) ;
#161 = DIRECTION ( 'NONE',  ( 0.000000000000000000, 1.000000000000000000, 0.000000000000000000 ) ) ;
#162 = LINE ( 'NONE', #179, #183 ) ;
#163 = VECTOR ( 'NONE', #222, 1000.000000000000000 ) ;
#164 = LOCAL_TIME ( 13, 13, 15.00000000000000000, #224 ) ;
#165 = DIRECTION ( 'NONE',  ( 1.000000000000000000, 0.000000000000000000, 0.000000000000000000 ) ) ;
#166 = CARTESIAN_POINT ( 'NONE',  ( 0.000000000000000000, -30.00000000000000000, -60.00000000000000000 ) ) ;
#167 = CC_DESIGN_PERSON_AND_ORGANIZATION_ASSIGNMENT ( #152, #172, ( #197 ) ) ;
#168 = PERSON_AND_ORGANIZATION ( #92, #153 ) ;
#169 = DIRECTION ( 'NONE',  ( 0.000000000000000000, 0.000000000000000000, 1.000000000000000000 ) ) ;
#170 = PERSON_AND_ORGANIZATION ( #92, #153 ) ;
#171 = AXIS2_PLACEMENT_3D ( 'NONE', #2, #117, #82 ) ;
#172 = PERSON_AND_ORGANIZATION_ROLE ( 'design_supplier' ) ;
#173 = ORIENTED_EDGE ( 'NONE', *, *, #232, .F. ) ;
#174 = COORDINATED_UNIVERSAL_TIME_OFFSET ( 2, 0, .AHEAD. ) ;
#175 = ORIENTED_EDGE ( 'NONE', *, *, #177, .T. ) ;
#176 = ORIENTED_EDGE ( 'NONE', *, *, #43, .T. ) ;
#177 = EDGE_CURVE ( 'NONE', #131, #214, #83, .T. ) ;
#178 = FACE_OUTER_BOUND ( 'NONE', #133, .T. ) ;
#179 = CARTESIAN_POINT ( 'NONE',  ( 0.000000000000000000, 10.00000000000000000, -10.50000000000000178 ) ) ;
#180 = DIRECTION ( 'NONE',  ( -0.000000000000000000, -1.000000000000000000, -0.000000000000000000 ) ) ;
#181 = CARTESIAN_POINT ( 'NONE',  ( 0.000000000000000000, 10.00000000000000000, 0.000000000000000000 ) ) ;
#182 = CYLINDRICAL_SURFACE ( 'NONE', #44, 60.00000000000000000 ) ;
#183 = VECTOR ( 'NONE', #242, 1000.000000000000000 ) ;
#184 = FACE_BOUND ( 'NONE', #235, .T. ) ;
#185 = CIRCLE ( 'NONE', #79, 60.00000000000000000 ) ;
#186 = DIRECTION ( 'NONE',  ( -0.000000000000000000, -1.000000000000000000, -0.000000000000000000 ) ) ;
#187 = PRODUCT_DEFINITION ( 'UNKNOWN', '', #197, #65 ) ;
#188 = LINE ( 'NONE', #68, #12 ) ;
#189 = SHAPE_DEFINITION_REPRESENTATION ( #40, #32 ) ;
#190 = CALENDAR_DATE ( 2025, 7, 4 ) ;
#191 = APPROVAL_STATUS ( 'not_yet_approved' ) ;
#192 = EDGE_LOOP ( 'NONE', ( #134, #158, #19, #78 ) ) ;
#193 = CC_DESIGN_PERSON_AND_ORGANIZATION_ASSIGNMENT ( #88, #91, ( #20 ) ) ;
#194 = VERTEX_POINT ( 'NONE', #108 ) ;
#195 = EDGE_LOOP ( 'NONE', ( #233, #123, #231, #81 ) ) ;
#196 = AXIS2_PLACEMENT_3D ( 'NONE', #239, #109, #141 ) ;
#197 = PRODUCT_DEFINITION_FORMATION_WITH_SPECIFIED_SOURCE ( 'ANY', '', #20, .NOT_KNOWN. ) ;
#198 = CARTESIAN_POINT ( 'NONE',  ( 0.000000000000000000, 5.000000000000000000, -10.50000000000000178 ) ) ;
#199 = DIRECTION ( 'NONE',  ( 0.000000000000000000, 1.000000000000000000, 0.000000000000000000 ) ) ;
#200 = FACE_OUTER_BOUND ( 'NONE', #195, .T. ) ;
#201 = CARTESIAN_POINT ( 'NONE',  ( 0.000000000000000000, 5.000000000000000000, -60.00000000000000000 ) ) ;
#202 = CARTESIAN_POINT ( 'NONE',  ( 7.347880794884118356E-15, 5.000000000000000000, 60.00000000000000000 ) ) ;
#203 = EDGE_CURVE ( 'NONE', #194, #100, #125, .T. ) ;
#204 = DIRECTION ( 'NONE',  ( 0.000000000000000000, -0.000000000000000000, 1.000000000000000000 ) ) ;
#205 = CARTESIAN_POINT ( 'NONE',  ( 0.000000000000000000, 10.00000000000000000, 0.000000000000000000 ) ) ;
#206 = APPROVAL_STATUS ( 'not_yet_approved' ) ;
#207 = DATE_AND_TIME ( #129, #230 ) ;
#208 = AXIS2_PLACEMENT_3D ( 'NONE', #48, #157, #103 ) ;
#209 = DATE_AND_TIME ( #190, #93 ) ;
#210 = SECURITY_CLASSIFICATION_LEVEL ( 'unclassified' ) ;
#211 = APPROVAL ( #86, 'UNSPECIFIED' ) ;
#212 = ORIENTED_EDGE ( 'NONE', *, *, #6, .T. ) ;
#213 = APPROVAL_PERSON_ORGANIZATION ( #229, #147, #249 ) ;
#214 = VERTEX_POINT ( 'NONE', #166 ) ;
#215 = AXIS2_PLACEMENT_3D ( 'NONE', #7, #67, #28 ) ;
#216 = DIRECTION ( 'NONE',  ( 0.000000000000000000, 0.000000000000000000, -1.000000000000000000 ) ) ;
#217 = AXIS2_PLACEMENT_3D ( 'NONE', #205, #144, #71 ) ;
#218 = CARTESIAN_POINT ( 'NONE',  ( 1.285879139104721028E-15, 10.00000000000000000, 10.50000000000000178 ) ) ;
#219 = CYLINDRICAL_SURFACE ( 'NONE', #62, 60.00000000000000000 ) ;
#220 = ADVANCED_FACE ( 'NONE', ( #33 ), #182, .T. ) ;
#221 = CARTESIAN_POINT ( 'NONE',  ( 0.000000000000000000, 5.000000000000000000, -60.00000000000000000 ) ) ;
#222 = DIRECTION ( 'NONE',  ( -0.000000000000000000, -1.000000000000000000, -0.000000000000000000 ) ) ;
#223 =( GEOMETRIC_REPRESENTATION_CONTEXT ( 3 ) GLOBAL_UNCERTAINTY_ASSIGNED_CONTEXT ( ( #37 ) ) GLOBAL_UNIT_ASSIGNED_CONTEXT ( ( #228, #11, #247 ) ) REPRESENTATION_CONTEXT ( 'NONE', 'WORKASPACE' ) );
#224 = COORDINATED_UNIVERSAL_TIME_OFFSET ( 2, 0, .AHEAD. ) ;
#225 = DIRECTION ( 'NONE',  ( 0.000000000000000000, 1.000000000000000000, 0.000000000000000000 ) ) ;
#226 = CALENDAR_DATE ( 2025, 7, 4 ) ;
#227 = MECHANICAL_CONTEXT ( 'NONE', #151, 'mechanical' ) ;
#228 =( LENGTH_UNIT ( ) NAMED_UNIT ( * ) SI_UNIT ( .MILLI., .METRE. ) );
#229 = PERSON_AND_ORGANIZATION ( #92, #153 ) ;
#230 = LOCAL_TIME ( 13, 13, 15.00000000000000000, #53 ) ;
#231 = ORIENTED_EDGE ( 'NONE', *, *, #89, .F. ) ;
#232 = EDGE_CURVE ( 'NONE', #17, #77, #188, .T. ) ;
#233 = ORIENTED_EDGE ( 'NONE', *, *, #240, .F. ) ;
#234 = CC_DESIGN_APPROVAL ( #147, ( #4 ) ) ;
#235 = EDGE_LOOP ( 'NONE', ( #58, #142 ) ) ;
#236 = AXIS2_PLACEMENT_3D ( 'NONE', #45, #29, #119 ) ;
#237 = FACE_OUTER_BOUND ( 'NONE', #154, .T. ) ;
#238 = MANIFOLD_SOLID_BREP ( 'Boss-Extrude4', #110 ) ;
#239 = CARTESIAN_POINT ( 'NONE',  ( 0.000000000000000000, 5.000000000000000000, 0.000000000000000000 ) ) ;
#240 = EDGE_CURVE ( 'NONE', #100, #194, #244, .T. ) ;
#241 = DIRECTION ( 'NONE',  ( 0.000000000000000000, 0.000000000000000000, 1.000000000000000000 ) ) ;
#242 = DIRECTION ( 'NONE',  ( -0.000000000000000000, -1.000000000000000000, -0.000000000000000000 ) ) ;
#243 = APPROVAL_ROLE ( '' ) ;
#244 = CIRCLE ( 'NONE', #217, 10.50000000000000178 ) ;
#245 = DATE_AND_TIME ( #226, #1 ) ;
#246 = APPLICATION_PROTOCOL_DEFINITION ( 'international standard', 'config_control_design', 1994, #39 ) ;
#247 =( NAMED_UNIT ( * ) SI_UNIT ( $, .STERADIAN. ) SOLID_ANGLE_UNIT ( ) );
#248 = PERSON_AND_ORGANIZATION_ROLE ( 'creator' ) ;
#249 = APPROVAL_ROLE ( '' ) ;
#250 = EDGE_CURVE ( 'NONE', #17, #131, #185, .T. ) ;
#251 = APPROVAL_DATE_TIME ( #55, #211 ) ;
#252 = ORIENTED_EDGE ( 'NONE', *, *, #43, .F. ) ;
#253 = ORIENTED_EDGE ( 'NONE', *, *, #105, .F. ) ;
#254 = ADVANCED_FACE ( 'NONE', ( #184, #126 ), #148, .T. ) ;
#255 = ORIENTED_EDGE ( 'NONE', *, *, #203, .T. ) ;
ENDSEC;
END-ISO-10303-21;
